<?xml version="1.0" encoding="utf-8"?>
<!-- Generator: Adobe Illustrator 17.0.0, SVG Export Plug-In . SVG Version: 6.00 Build 0)  -->
<!DOCTYPE svg PUBLIC "-//W3C//DTD SVG 1.1//EN" "http://www.w3.org/Graphics/SVG/1.1/DTD/svg11.dtd">
<svg version="1.1" id="Calque_1" xmlns="http://www.w3.org/2000/svg" xmlns:xlink="http://www.w3.org/1999/xlink" x="0px" y="0px"
	 width="322px" height="70px" viewBox="0 0 322 70" style="enable-background:new 0 0 322 70;" xml:space="preserve">
<style type="text/css">
	.st0{fill:#3F6075;}
	.st1{fill:#FFFFFF;}
</style>
<g>
	<path class="st1" d="M19.084,8.65c-2.742,0-4.904,1.605-6.486,4.816c-1.582,3.211-2.373,7.676-2.373,13.395
		c0,11.906,3.105,17.859,9.316,17.859c2.719,0,5.566-0.867,8.543-2.602v8.508c-2.508,1.665-5.719,2.496-9.633,2.496
		c-5.789,0-10.236-2.303-13.342-6.908c-3.106-4.605-4.658-11.08-4.658-19.424c0-8.344,1.6-14.848,4.799-19.512
		c3.199-4.664,7.646-6.996,13.342-6.996c1.875,0,3.674,0.258,5.396,0.773c1.723,0.516,3.568,1.418,5.537,2.707l-3.164,7.77
		c-1.055-0.726-2.18-1.389-3.375-1.986S20.49,8.65,19.084,8.65z"/>
	<path class="st1" d="M62.118,32.768c0,6.422-1.359,11.42-4.078,14.994c-2.719,3.574-6.446,5.361-11.18,5.361
		c-3,0-5.648-0.82-7.945-2.461c-2.297-1.64-4.066-4.002-5.309-7.084c-1.243-3.082-1.863-6.685-1.863-10.811
		c0-6.351,1.348-11.314,4.043-14.889c2.695-3.574,6.434-5.361,11.215-5.361c4.617,0,8.291,1.823,11.021,5.467
		C60.752,21.629,62.118,26.557,62.118,32.768z M41.306,32.768c0,4.078,0.445,7.16,1.336,9.246c0.891,2.086,2.32,3.129,4.289,3.129
		c3.75,0,5.625-4.125,5.625-12.375c0-4.101-0.452-7.166-1.354-9.193c-0.902-2.027-2.326-3.041-4.271-3.041
		c-1.969,0-3.398,1.014-4.289,3.041C41.75,25.602,41.306,28.667,41.306,32.768z"/>
	<path class="st1" d="M87.073,52.42V29.076c0-2.835-0.34-4.98-1.02-6.434c-0.68-1.453-1.781-2.18-3.305-2.18
		c-2.016,0-3.493,1.002-4.43,3.006c-0.938,2.004-1.406,5.385-1.406,10.143V52.42h-9.352V13.256h7.418l1.125,5.027h0.598
		c0.844-1.805,2.051-3.217,3.621-4.236c1.57-1.02,3.41-1.529,5.52-1.529c3.562,0,6.228,1.219,7.998,3.656
		c1.77,2.438,2.654,6,2.654,10.688V52.42H87.073z"/>
	<path class="st1" d="M116.185,53.123c-4.664,0-8.215-1.699-10.652-5.098c-2.438-3.398-3.656-8.39-3.656-14.977
		c0-6.891,1.154-12.035,3.463-15.434c2.308-3.398,5.876-5.098,10.705-5.098c1.453,0,2.976,0.211,4.57,0.633
		c1.594,0.422,3.023,1.032,4.289,1.828l-2.672,7.277c-1.946-1.148-3.668-1.723-5.168-1.723c-1.992,0-3.428,1.037-4.307,3.111
		s-1.318,5.186-1.318,9.334c0,4.055,0.434,7.084,1.301,9.088c0.867,2.004,2.285,3.006,4.254,3.006c2.343,0,4.793-0.82,7.348-2.461
		v8.227C121.88,52.362,119.161,53.123,116.185,53.123z"/>
	<path class="st1" d="M143.148,53.123c-4.899,0-8.76-1.74-11.584-5.221c-2.825-3.48-4.236-8.408-4.236-14.783
		c0-6.469,1.277-11.519,3.832-15.152c2.554-3.633,6.117-5.449,10.688-5.449c4.266,0,7.629,1.553,10.09,4.658
		c2.461,3.106,3.691,7.459,3.691,13.061v4.992H136.82c0.07,3.493,0.785,6.088,2.145,7.787c1.359,1.7,3.234,2.549,5.625,2.549
		c3.046,0,6.164-0.949,9.352-2.848v7.699C150.941,52.221,147.344,53.123,143.148,53.123z M141.777,19.725
		c-1.336,0-2.438,0.709-3.305,2.127c-0.867,1.418-1.371,3.616-1.512,6.592h9.492c-0.047-2.859-0.48-5.027-1.301-6.504
		C144.332,20.463,143.207,19.725,141.777,19.725z"/>
	<path class="st1" d="M178.59,53.123c-1.688,0-3.182-0.381-4.482-1.143s-2.514-2.104-3.639-4.025h-0.492
		c0.375,3.188,0.562,5.109,0.562,5.766v15.996h-9.422V13.256h7.242l1.617,5.098h0.422c1.945-3.89,4.769-5.836,8.473-5.836
		c3.562,0,6.351,1.764,8.367,5.291c2.016,3.528,3.023,8.514,3.023,14.959c0,6.352-1.043,11.333-3.129,14.941
		C185.047,51.318,182.199,53.123,178.59,53.123z M175.708,20.463c-1.828,0-3.146,0.85-3.955,2.549
		c-0.809,1.7-1.236,4.518-1.283,8.455v1.23c0,4.312,0.41,7.453,1.23,9.422c0.82,1.969,2.18,2.953,4.078,2.953
		c3.281,0,4.922-4.148,4.922-12.445c0-4.078-0.404-7.125-1.213-9.141C178.678,21.471,177.418,20.463,175.708,20.463z"/>
	<path class="st1" d="M209.175,45.213c1.312,0,2.73-0.328,4.254-0.984v7.312c-1.524,1.055-3.809,1.582-6.855,1.582
		c-3.398,0-5.918-1.014-7.559-3.041c-1.641-2.027-2.461-5.068-2.461-9.123V20.674h-3.797V16.49l4.887-3.375l2.391-8.297h5.977v8.438
		h7.102v7.418h-7.102v20.602C206.011,43.9,207.065,45.213,209.175,45.213z"/>
	<path class="st1" d="M239.569,40.959c0,3.82-1.12,6.803-3.357,8.947c-2.238,2.145-5.537,3.217-9.896,3.217
		c-3.867,0-7.066-0.761-9.598-2.285v-8.121c1.289,0.891,2.795,1.629,4.518,2.215c1.723,0.586,3.24,0.879,4.553,0.879
		c1.453,0,2.561-0.357,3.322-1.072c0.761-0.715,1.143-1.658,1.143-2.83c0-1.195-0.399-2.238-1.195-3.129
		c-0.797-0.891-2.262-1.98-4.395-3.27c-2.836-1.688-4.869-3.486-6.1-5.396c-1.23-1.91-1.846-4.166-1.846-6.768
		c0-3.328,1.143-5.964,3.428-7.91c2.285-1.945,5.419-2.918,9.404-2.918c3.468,0,6.738,0.914,9.809,2.742l-3.059,6.715
		c-2.508-1.359-4.711-2.039-6.609-2.039c-1.195,0-2.092,0.316-2.689,0.949s-0.896,1.406-0.896,2.32c0,1.055,0.369,1.992,1.107,2.812
		c0.738,0.821,2.115,1.84,4.131,3.059c2.438,1.477,4.148,2.73,5.133,3.762c0.984,1.032,1.746,2.203,2.285,3.516
		C239.3,37.667,239.569,39.201,239.569,40.959z"/>
	<path class="st1" d="M258.844,45.213c1.312,0,2.73-0.328,4.254-0.984v7.312c-1.523,1.055-3.809,1.582-6.855,1.582
		c-3.398,0-5.918-1.014-7.559-3.041c-1.641-2.027-2.461-5.068-2.461-9.123V20.674h-3.797V16.49l4.887-3.375l2.391-8.297h5.977v8.438
		h7.102v7.418h-7.102v20.602C255.68,43.9,256.734,45.213,258.844,45.213z"/>
	<path class="st1" d="M296.03,32.768c0,6.422-1.359,11.42-4.078,14.994c-2.719,3.574-6.445,5.361-11.18,5.361
		c-3,0-5.648-0.82-7.945-2.461c-2.297-1.64-4.066-4.002-5.309-7.084c-1.242-3.082-1.863-6.685-1.863-10.811
		c0-6.351,1.348-11.314,4.043-14.889c2.695-3.574,6.434-5.361,11.215-5.361c4.617,0,8.291,1.823,11.021,5.467
		C294.665,21.629,296.03,26.557,296.03,32.768z M275.218,32.768c0,4.078,0.445,7.16,1.336,9.246c0.891,2.086,2.32,3.129,4.289,3.129
		c3.75,0,5.625-4.125,5.625-12.375c0-4.101-0.451-7.166-1.354-9.193c-0.902-2.027-2.326-3.041-4.271-3.041
		c-1.969,0-3.398,1.014-4.289,3.041C275.663,25.602,275.218,28.667,275.218,32.768z"/>
	<path class="st1" d="M318.174,12.518c1.148,0,2.273,0.176,3.375,0.527l-1.09,9.07c-0.656-0.234-1.512-0.352-2.566-0.352
		c-2.273,0-4.02,0.896-5.238,2.689s-1.828,4.4-1.828,7.822V52.42h-9.352V13.256h7.699l1.055,6.117h0.316
		c1.031-2.461,2.156-4.219,3.375-5.273S316.557,12.518,318.174,12.518z"/>
</g>
</svg>
