<?xml version="1.0" encoding="utf-8"?>
<!-- Generator: Adobe Illustrator 17.0.0, SVG Export Plug-In . SVG Version: 6.00 Build 0)  -->
<!DOCTYPE svg PUBLIC "-//W3C//DTD SVG 1.1//EN" "http://www.w3.org/Graphics/SVG/1.1/DTD/svg11.dtd">
<svg version="1.1" id="Calque_1" xmlns="http://www.w3.org/2000/svg" xmlns:xlink="http://www.w3.org/1999/xlink" x="0px" y="0px"
	 width="550px" height="110px" viewBox="0 0 550 110" style="enable-background:new 0 0 550 110;" xml:space="preserve">
<style type="text/css">
	.st0{display:none;}
	.st1{display:inline;}
	.st2{fill:#FFFFFF;}
	.st3{fill:#1D3663;}
</style>
<g class="st0">
	<path class="st1" d="M18.908,17.069c-0.575,1.112-1.591,1.897-3.046,2.356c-1.456,0.46-3.391,0.69-5.805,0.69
		s-4.35-0.23-5.804-0.69c-1.457-0.46-2.471-1.264-3.046-2.414c-0.575-1.15-0.92-2.164-1.035-3.046C0.058,13.085,0,11.764,0,10
		c0-1.762,0.058-3.084,0.173-3.966c0.115-0.88,0.44-1.857,0.977-2.931C2.222,1.034,5.21,0,10.115,0c4.828,0,7.739,1.034,8.736,3.103
		c0.612,1.15,0.977,2.166,1.092,3.046c0.115,0.882,0.172,2.203,0.172,3.965c0,1.764-0.057,3.086-0.172,3.966
		C19.828,14.962,19.483,15.959,18.908,17.069z M0,38.39c0-1.762,0.058-3.084,0.173-3.965c0.115-0.88,0.44-1.897,0.977-3.046
		c1.072-1.992,4.061-2.989,8.965-2.989c3.678,0,6.283,0.652,7.816,1.954c1.302,1.074,1.992,2.721,2.069,4.943
		c0.075,0.767,0.115,1.878,0.115,3.333v40.23c0,1.764-0.057,3.085-0.172,3.966c-0.115,0.882-0.48,1.897-1.092,3.046
		c-0.997,1.994-3.947,2.989-8.85,2.989c-4.828,0-7.779-1.035-8.851-3.104c-0.537-1.149-0.862-2.144-0.977-2.988
		C0.058,81.916,0,80.574,0,78.735V38.39z"/>
	<path class="st1" d="M63.505,28.275c7.662,0,14.041,2.931,19.138,8.793c5.095,5.862,7.644,13.008,7.644,21.437v20.23
		c0,1.764-0.058,3.085-0.172,3.966c-0.115,0.882-0.442,1.859-0.977,2.931c-1.074,2.069-4.063,3.103-8.966,3.103
		c-5.442,0-8.583-1.417-9.425-4.253c-0.46-1.302-0.69-3.256-0.69-5.862v-20.23c0-3.142-0.901-5.593-2.701-7.356
		c-1.801-1.762-4.215-2.644-7.241-2.644c-3.028,0-5.48,0.92-7.356,2.759c-1.879,1.839-2.817,4.253-2.817,7.241v20.345
		c0,1.764-0.057,3.085-0.172,3.966c-0.115,0.882-0.48,1.859-1.092,2.931c-0.997,2.069-3.947,3.103-8.85,3.103
		c-4.828,0-7.779-1.035-8.851-3.103c-0.537-1.15-0.862-2.164-0.977-3.046c-0.115-0.88-0.173-2.202-0.173-3.966v-40.69
		c0-1.685,0.058-2.969,0.173-3.851c0.115-0.88,0.478-1.857,1.092-2.931c1.072-1.914,4.023-2.874,8.85-2.874
		c4.673,0,7.547,0.882,8.621,2.644c0.765,1.304,1.15,2.874,1.15,4.713c0.305-0.535,0.995-1.302,2.069-2.299
		c1.072-0.995,2.107-1.8,3.103-2.414C57.488,29.158,60.362,28.275,63.505,28.275z"/>
	<path class="st1" d="M99.204,77.011c-1.994-2.452-2.989-4.656-2.989-6.609c0-1.954,1.647-4.54,4.943-7.759
		c1.914-1.839,3.946-2.759,6.092-2.759c2.144,0,5.133,1.917,8.965,5.747c1.072,1.304,2.604,2.549,4.598,3.736
		c1.991,1.189,3.83,1.781,5.517,1.781c7.126,0,10.69-2.911,10.69-8.736c0-1.762-0.977-3.236-2.931-4.425
		c-1.954-1.187-4.388-2.049-7.299-2.586c-2.913-0.535-6.054-1.397-9.425-2.586c-3.373-1.187-6.514-2.586-9.425-4.195
		c-2.913-1.609-5.345-4.156-7.299-7.644c-1.954-3.486-2.931-7.682-2.931-12.586c0-6.742,2.509-12.624,7.529-17.644
		c5.018-5.018,11.857-7.529,20.517-7.529c4.598,0,8.793,0.594,12.586,1.781c3.793,1.189,6.417,2.396,7.874,3.621l2.874,2.184
		c2.374,2.223,3.563,4.1,3.563,5.632c0,1.534-0.92,3.641-2.759,6.322c-2.606,3.833-5.287,5.747-8.046,5.747
		c-1.609,0-3.603-0.765-5.977-2.299c-0.23-0.153-0.672-0.536-1.322-1.15c-0.652-0.612-1.246-1.11-1.781-1.494
		c-1.609-0.995-3.66-1.494-6.149-1.494c-2.491,0-4.56,0.594-6.207,1.782c-1.649,1.189-2.471,2.836-2.471,4.942
		c0,2.109,0.977,3.813,2.931,5.115c1.954,1.304,4.386,2.184,7.299,2.643c2.911,0.46,6.092,1.169,9.54,2.127
		c3.448,0.959,6.627,2.126,9.54,3.505c2.911,1.38,5.345,3.775,7.299,7.184c1.954,3.411,2.931,7.606,2.931,12.586
		c0,4.982-0.997,9.368-2.989,13.161c-1.993,3.793-4.598,6.724-7.816,8.793C140.469,87.97,133.84,90,126.79,90
		c-3.603,0-7.011-0.442-10.23-1.322c-3.219-0.88-5.825-1.972-7.816-3.276c-4.062-2.451-6.897-4.828-8.506-7.126L99.204,77.011z"/>
	<path class="st1" d="M183.618,17.069c-0.575,1.112-1.591,1.897-3.046,2.356c-1.456,0.46-3.391,0.69-5.805,0.69
		s-4.35-0.23-5.804-0.69c-1.457-0.46-2.471-1.264-3.046-2.414c-0.575-1.15-0.919-2.164-1.035-3.046
		c-0.115-0.88-0.173-2.201-0.173-3.965c0-1.762,0.058-3.084,0.173-3.966c0.115-0.88,0.44-1.857,0.977-2.931
		C166.931,1.034,169.92,0,174.824,0c4.828,0,7.739,1.034,8.736,3.103c0.612,1.15,0.977,2.166,1.092,3.046
		c0.115,0.882,0.172,2.203,0.172,3.965c0,1.764-0.057,3.086-0.172,3.966C184.537,14.962,184.192,15.959,183.618,17.069z
		 M164.709,38.39c0-1.762,0.058-3.084,0.173-3.965c0.115-0.88,0.44-1.897,0.977-3.046c1.072-1.992,4.061-2.989,8.965-2.989
		c3.678,0,6.283,0.652,7.816,1.954c1.302,1.074,1.992,2.721,2.069,4.943c0.075,0.767,0.115,1.878,0.115,3.333v40.23
		c0,1.764-0.057,3.085-0.172,3.966c-0.115,0.882-0.48,1.897-1.092,3.046c-0.997,1.994-3.947,2.989-8.85,2.989
		c-4.828,0-7.779-1.035-8.851-3.104c-0.537-1.149-0.862-2.144-0.977-2.988c-0.115-0.842-0.173-2.184-0.173-4.023V38.39z"/>
	<path class="st1" d="M228.007,48.62l-7.471-0.46v15.862c0,2.069,0.325,3.563,0.977,4.482c0.65,0.92,1.876,1.38,3.678,1.38
		c1.8,0,3.179,0.057,4.138,0.172c0.957,0.115,1.972,0.48,3.046,1.092c1.762,0.997,2.643,3.563,2.643,7.701
		c0,4.828-1.074,7.778-3.218,8.85c-1.15,0.537-2.166,0.862-3.046,0.977c-0.882,0.115-2.166,0.173-3.851,0.173
		c-7.97,0-14.023-1.8-18.161-5.402c-4.138-3.601-6.207-9.693-6.207-18.276V48.161c-1.456,0.23-3.028,0.345-4.713,0.345
		c-1.687,0-3.085-0.65-4.195-1.954c-1.112-1.302-1.667-3.524-1.667-6.667c0-3.141,0.19-5.42,0.575-6.839
		c0.383-1.417,0.92-2.432,1.609-3.046c1.225-0.995,2.759-1.494,4.598-1.494l3.793,0.46V17.126c0-1.762,0.058-3.064,0.173-3.908
		c0.115-0.842,0.478-1.762,1.092-2.759c0.995-1.915,3.946-2.874,8.85-2.874c5.21,0,8.314,1.419,9.311,4.253
		c0.383,1.227,0.575,3.18,0.575,5.862v11.264c3.371-0.305,5.919-0.46,7.644-0.46c1.724,0,3.026,0.058,3.908,0.173
		c0.88,0.115,1.897,0.479,3.046,1.092c1.992,0.997,2.989,3.948,2.989,8.851c0,4.828-1.035,7.778-3.104,8.85
		c-1.149,0.537-2.166,0.862-3.046,0.977C231.091,48.563,229.769,48.62,228.007,48.62z"/>
	<path class="st1" d="M263.466,17.069c-0.575,1.112-1.591,1.897-3.046,2.356c-1.456,0.46-3.391,0.69-5.805,0.69
		s-4.35-0.23-5.804-0.69c-1.457-0.46-2.471-1.264-3.046-2.414c-0.575-1.15-0.919-2.164-1.035-3.046
		c-0.115-0.88-0.173-2.201-0.173-3.965c0-1.762,0.058-3.084,0.173-3.966c0.115-0.88,0.44-1.857,0.977-2.931
		C246.779,1.034,249.768,0,254.672,0c4.828,0,7.739,1.034,8.736,3.103c0.612,1.15,0.977,2.166,1.092,3.046
		c0.115,0.882,0.172,2.203,0.172,3.965c0,1.764-0.057,3.086-0.172,3.966C264.385,14.962,264.041,15.959,263.466,17.069z
		 M244.557,38.39c0-1.762,0.058-3.084,0.173-3.965c0.115-0.88,0.44-1.897,0.977-3.046c1.072-1.992,4.061-2.989,8.965-2.989
		c3.678,0,6.283,0.652,7.816,1.954c1.302,1.074,1.992,2.721,2.069,4.943c0.075,0.767,0.115,1.878,0.115,3.333v40.23
		c0,1.764-0.057,3.085-0.172,3.966c-0.115,0.882-0.48,1.897-1.092,3.046c-0.997,1.994-3.947,2.989-8.85,2.989
		c-4.828,0-7.779-1.035-8.851-3.104c-0.537-1.149-0.862-2.144-0.977-2.988c-0.115-0.842-0.173-2.184-0.173-4.023V38.39z"/>
</g>
<g>
	<path class="st2" d="M18.908,17.069c-0.575,1.112-1.591,1.897-3.046,2.356c-1.456,0.46-3.391,0.69-5.805,0.69
		s-4.35-0.23-5.804-0.69c-1.457-0.46-2.471-1.264-3.046-2.414c-0.575-1.15-0.92-2.164-1.035-3.046C0.058,13.085,0,11.764,0,10
		c0-1.762,0.058-3.084,0.173-3.966c0.115-0.88,0.44-1.857,0.977-2.931C2.222,1.034,5.21,0,10.115,0c4.828,0,7.739,1.034,8.736,3.103
		c0.612,1.15,0.977,2.166,1.092,3.046c0.115,0.882,0.172,2.203,0.172,3.965c0,1.764-0.057,3.086-0.172,3.966
		C19.828,14.962,19.483,15.959,18.908,17.069z M0,38.39c0-1.762,0.058-3.084,0.173-3.965c0.115-0.88,0.44-1.897,0.977-3.046
		c1.072-1.992,4.061-2.989,8.965-2.989c3.678,0,6.283,0.652,7.816,1.954c1.302,1.074,1.992,2.721,2.069,4.943
		c0.075,0.767,0.115,1.878,0.115,3.333v40.23c0,1.764-0.057,3.085-0.172,3.966c-0.115,0.882-0.48,1.897-1.092,3.046
		c-0.997,1.994-3.947,2.989-8.85,2.989c-4.828,0-7.779-1.035-8.851-3.104c-0.537-1.149-0.862-2.144-0.977-2.988
		C0.058,81.916,0,80.574,0,78.735V38.39z"/>
	<path class="st2" d="M63.505,28.275c7.662,0,14.041,2.931,19.138,8.793c5.095,5.862,7.644,13.008,7.644,21.437v20.23
		c0,1.764-0.058,3.085-0.172,3.966c-0.115,0.882-0.442,1.859-0.977,2.931c-1.074,2.069-4.063,3.103-8.966,3.103
		c-5.442,0-8.583-1.417-9.425-4.253c-0.46-1.302-0.69-3.256-0.69-5.862v-20.23c0-3.142-0.901-5.593-2.701-7.356
		c-1.801-1.762-4.215-2.644-7.241-2.644c-3.028,0-5.48,0.92-7.356,2.759c-1.879,1.839-2.817,4.253-2.817,7.241v20.345
		c0,1.764-0.057,3.085-0.172,3.966c-0.115,0.882-0.48,1.859-1.092,2.931c-0.997,2.069-3.947,3.103-8.85,3.103
		c-4.828,0-7.779-1.035-8.851-3.103c-0.537-1.15-0.862-2.164-0.977-3.046c-0.115-0.88-0.173-2.202-0.173-3.966v-40.69
		c0-1.685,0.058-2.969,0.173-3.851c0.115-0.88,0.478-1.857,1.092-2.931c1.072-1.914,4.023-2.874,8.85-2.874
		c4.673,0,7.547,0.882,8.621,2.644c0.765,1.304,1.15,2.874,1.15,4.713c0.305-0.535,0.995-1.302,2.069-2.299
		c1.072-0.995,2.107-1.8,3.103-2.414C57.488,29.158,60.362,28.275,63.505,28.275z"/>
	<path class="st2" d="M100.204,77.011c-1.994-2.452-2.989-4.656-2.989-6.609c0-1.954,1.647-4.54,4.943-7.759
		c1.914-1.839,3.946-2.759,6.092-2.759c2.144,0,5.133,1.917,8.965,5.747c1.072,1.304,2.604,2.549,4.598,3.736
		c1.991,1.189,3.83,1.781,5.517,1.781c7.126,0,10.69-2.911,10.69-8.736c0-1.762-0.977-3.236-2.931-4.425
		c-1.954-1.187-4.388-2.049-7.299-2.586c-2.913-0.535-6.054-1.397-9.425-2.586c-3.373-1.187-6.514-2.586-9.425-4.195
		c-2.913-1.609-5.345-4.156-7.299-7.644c-1.954-3.486-2.931-7.682-2.931-12.586c0-6.742,2.509-12.624,7.529-17.644
		c5.018-5.018,11.857-7.529,20.517-7.529c4.598,0,8.793,0.594,12.586,1.781c3.793,1.189,6.417,2.396,7.874,3.621l2.874,2.184
		c2.374,2.223,3.563,4.1,3.563,5.632c0,1.534-0.92,3.641-2.759,6.322c-2.606,3.833-5.287,5.747-8.046,5.747
		c-1.609,0-3.603-0.765-5.977-2.299c-0.23-0.153-0.672-0.536-1.322-1.15c-0.652-0.612-1.246-1.11-1.781-1.494
		c-1.609-0.995-3.66-1.494-6.149-1.494c-2.491,0-4.56,0.594-6.207,1.782c-1.649,1.189-2.471,2.836-2.471,4.942
		c0,2.109,0.977,3.813,2.931,5.115c1.954,1.304,4.386,2.184,7.299,2.643c2.911,0.46,6.092,1.169,9.54,2.127
		c3.448,0.959,6.627,2.126,9.54,3.505c2.911,1.38,5.345,3.775,7.299,7.184c1.954,3.411,2.931,7.606,2.931,12.586
		c0,4.982-0.997,9.368-2.989,13.161c-1.993,3.793-4.598,6.724-7.816,8.793C141.469,87.97,134.84,90,127.79,90
		c-3.603,0-7.011-0.442-10.23-1.322c-3.219-0.88-5.825-1.972-7.816-3.276c-4.062-2.451-6.897-4.828-8.506-7.126L100.204,77.011z"/>
	<path class="st2" d="M185.618,17.069c-0.575,1.112-1.591,1.897-3.046,2.356c-1.456,0.46-3.391,0.69-5.805,0.69
		s-4.35-0.23-5.804-0.69c-1.457-0.46-2.471-1.264-3.046-2.414c-0.575-1.15-0.919-2.164-1.035-3.046
		c-0.115-0.88-0.173-2.201-0.173-3.965c0-1.762,0.058-3.084,0.173-3.966c0.115-0.88,0.44-1.857,0.977-2.931
		C168.931,1.034,171.92,0,176.824,0c4.828,0,7.739,1.034,8.736,3.103c0.612,1.15,0.977,2.166,1.092,3.046
		c0.115,0.882,0.172,2.203,0.172,3.965c0,1.764-0.057,3.086-0.172,3.966C186.537,14.962,186.192,15.959,185.618,17.069z
		 M166.709,38.39c0-1.762,0.058-3.084,0.173-3.965c0.115-0.88,0.44-1.897,0.977-3.046c1.072-1.992,4.061-2.989,8.965-2.989
		c3.678,0,6.283,0.652,7.816,1.954c1.302,1.074,1.992,2.721,2.069,4.943c0.075,0.767,0.115,1.878,0.115,3.333v40.23
		c0,1.764-0.057,3.085-0.172,3.966c-0.115,0.882-0.48,1.897-1.092,3.046c-0.997,1.994-3.947,2.989-8.85,2.989
		c-4.828,0-7.779-1.035-8.851-3.104c-0.537-1.149-0.862-2.144-0.977-2.988c-0.115-0.842-0.173-2.184-0.173-4.023V38.39z"/>
	<path class="st2" d="M233.335,48.62l-7.471-0.46v15.862c0,2.069,0.325,3.563,0.977,4.482c0.65,0.92,1.876,1.38,3.678,1.38
		c1.8,0,3.179,0.057,4.138,0.172c0.957,0.115,1.972,0.48,3.046,1.092c1.762,0.997,2.643,3.563,2.643,7.701
		c0,4.828-1.074,7.778-3.218,8.85c-1.15,0.537-2.166,0.862-3.046,0.977c-0.882,0.115-2.166,0.173-3.851,0.173
		c-7.97,0-14.023-1.8-18.161-5.402c-4.138-3.601-6.207-9.693-6.207-18.276V48.161c-1.456,0.23-3.028,0.345-4.713,0.345
		c-1.687,0-3.085-0.65-4.195-1.954c-1.112-1.302-1.667-3.524-1.667-6.667c0-3.141,0.19-5.42,0.575-6.839
		c0.383-1.417,0.919-2.432,1.609-3.046c1.225-0.995,2.759-1.494,4.598-1.494l3.793,0.46V17.126c0-1.762,0.058-3.064,0.173-3.908
		c0.115-0.842,0.478-1.762,1.092-2.759c0.995-1.915,3.946-2.874,8.85-2.874c5.21,0,8.314,1.419,9.311,4.253
		c0.383,1.227,0.575,3.18,0.575,5.862v11.264c3.371-0.305,5.919-0.46,7.644-0.46c1.724,0,3.026,0.058,3.908,0.173
		c0.88,0.115,1.897,0.479,3.046,1.092c1.992,0.997,2.989,3.948,2.989,8.851c0,4.828-1.035,7.778-3.104,8.85
		c-1.149,0.537-2.166,0.862-3.046,0.977C236.418,48.563,235.097,48.62,233.335,48.62z"/>
	<path class="st2" d="M268.793,17.069c-0.575,1.112-1.591,1.897-3.046,2.356c-1.456,0.46-3.391,0.69-5.805,0.69
		c-2.414,0-4.35-0.23-5.804-0.69c-1.457-0.46-2.471-1.264-3.046-2.414c-0.575-1.15-0.92-2.164-1.035-3.046
		c-0.115-0.88-0.173-2.201-0.173-3.965c0-1.762,0.058-3.084,0.173-3.966c0.115-0.88,0.44-1.857,0.977-2.931
		C252.107,1.034,255.095,0,260,0c4.828,0,7.739,1.034,8.736,3.103c0.612,1.15,0.977,2.166,1.092,3.046
		C269.943,7.031,270,8.353,270,10.115c0,1.764-0.057,3.086-0.172,3.966C269.713,14.962,269.368,15.959,268.793,17.069z
		 M249.885,38.39c0-1.762,0.058-3.084,0.173-3.965c0.115-0.88,0.44-1.897,0.977-3.046c1.072-1.992,4.061-2.989,8.965-2.989
		c3.678,0,6.283,0.652,7.816,1.954c1.302,1.074,1.992,2.721,2.069,4.943c0.075,0.767,0.115,1.878,0.115,3.333v40.23
		c0,1.764-0.057,3.085-0.172,3.966c-0.115,0.882-0.48,1.897-1.092,3.046c-0.997,1.994-3.947,2.989-8.85,2.989
		c-4.828,0-7.779-1.035-8.851-3.104c-0.537-1.149-0.862-2.144-0.977-2.988c-0.115-0.842-0.173-2.184-0.173-4.023V38.39z"/>
</g>
<g>
	<path class="st2" d="M344.515,59.679c0.72,0.748,1.08,1.654,1.08,2.72v18c0,1.44-0.64,2.56-1.92,3.36
		c-2.454,1.6-5.147,2.84-8.08,3.72c-2.934,0.88-5.948,1.32-9.04,1.32c-5.333,0-10.228-1.28-14.68-3.84
		c-4.454-2.56-7.96-6.04-10.52-10.44c-2.56-4.4-3.84-9.24-3.84-14.52s1.28-10.12,3.84-14.52c2.56-4.4,6.066-7.88,10.52-10.44
		c4.453-2.56,9.347-3.84,14.68-3.84c2.667,0,5.24,0.293,7.72,0.88c2.48,0.587,4.706,1.467,6.68,2.64
		c0.64,0.374,1.12,0.827,1.44,1.36c0.32,0.534,0.48,1.12,0.48,1.76c0,1.068-0.36,1.988-1.08,2.76c-0.72,0.773-1.588,1.16-2.6,1.16
		c-0.8,0-1.494-0.186-2.08-0.56c-3.468-1.6-6.987-2.4-10.56-2.4c-3.84,0-7.348,0.934-10.52,2.8c-3.174,1.867-5.68,4.427-7.52,7.68
		c-1.84,3.254-2.76,6.828-2.76,10.72c0,3.894,0.92,7.454,2.76,10.68c1.84,3.228,4.346,5.787,7.52,7.68
		c3.172,1.894,6.68,2.84,10.52,2.84c1.812,0,3.72-0.213,5.72-0.64c2-0.426,3.72-0.986,5.16-1.68v-12.72h-9.68
		c-1.068,0-1.974-0.36-2.72-1.08c-0.748-0.72-1.12-1.613-1.12-2.68c0-1.12,0.373-2.04,1.12-2.76c0.746-0.72,1.652-1.08,2.72-1.08
		h14.08C342.901,58.559,343.795,58.932,344.515,59.679z"/>
	<path class="st2" d="M376.987,46.199c1.012,0.72,1.52,1.614,1.52,2.68c0,1.28-0.334,2.254-1,2.92c-0.667,0.667-1.48,1-2.44,1
		c-0.48,0-1.2-0.16-2.16-0.48c-1.12-0.373-2-0.56-2.64-0.56c-1.654,0-3.268,0.574-4.84,1.72c-1.574,1.147-2.854,2.72-3.84,4.72
		c-0.987,2-1.48,4.228-1.48,6.68v19.28c0,1.067-0.36,1.974-1.08,2.72c-0.72,0.748-1.64,1.12-2.76,1.12s-2.027-0.36-2.72-1.08
		c-0.694-0.72-1.04-1.64-1.04-2.76v-34.24c0-1.066,0.36-1.973,1.08-2.72c0.72-0.747,1.613-1.12,2.68-1.12
		c1.12,0,2.04,0.374,2.76,1.12c0.72,0.747,1.08,1.653,1.08,2.72v4.08c1.173-2.612,2.933-4.732,5.28-6.36
		c2.346-1.626,5.012-2.466,8-2.52C374.773,45.119,375.973,45.479,376.987,46.199z"/>
	<path class="st2" d="M417.074,78.239c-1.868,3.307-4.414,5.894-7.64,7.76c-3.228,1.868-6.788,2.8-10.68,2.8
		c-3.894,0-7.454-0.932-10.68-2.8c-3.228-1.866-5.774-4.453-7.64-7.76c-1.867-3.307-2.8-7.04-2.8-11.2s0.933-7.92,2.8-11.28
		c1.866-3.36,4.413-5.972,7.64-7.84c3.226-1.866,6.786-2.8,10.68-2.8c3.892,0,7.452,0.934,10.68,2.8
		c3.227,1.868,5.772,4.48,7.64,7.84c1.866,3.36,2.8,7.12,2.8,11.28S418.94,74.932,417.074,78.239z M410.474,59.318
		c-1.2-2.266-2.828-4.026-4.88-5.28c-2.054-1.252-4.334-1.88-6.84-1.88c-2.508,0-4.788,0.627-6.84,1.88
		c-2.054,1.254-3.68,3.014-4.88,5.28c-1.2,2.268-1.8,4.84-1.8,7.72c0,2.828,0.6,5.36,1.8,7.6c1.2,2.24,2.826,3.987,4.88,5.24
		c2.053,1.254,4.333,1.88,6.84,1.88c2.506,0,4.786-0.626,6.84-1.88c2.052-1.252,3.68-3,4.88-5.24c1.2-2.24,1.8-4.772,1.8-7.6
		C412.274,64.159,411.674,61.586,410.474,59.318z"/>
	<path class="st2" d="M458.753,47.199c0.72,0.747,1.08,1.653,1.08,2.72v21.28c0,5.547-1.534,9.854-4.6,12.92
		c-3.067,3.067-7.4,4.6-13,4.6c-5.548,0-9.84-1.533-12.88-4.6c-3.04-3.066-4.56-7.373-4.56-12.92v-21.28
		c0-1.066,0.36-1.973,1.08-2.72c0.72-0.747,1.613-1.12,2.68-1.12c1.12,0,2.04,0.374,2.76,1.12c0.72,0.747,1.08,1.653,1.08,2.72
		v21.28c0,6.987,3.28,10.48,9.84,10.48c3.252,0,5.732-0.88,7.44-2.64c1.706-1.76,2.56-4.373,2.56-7.84v-21.28
		c0-1.066,0.36-1.973,1.08-2.72c0.72-0.747,1.612-1.12,2.68-1.12C457.113,46.079,458.033,46.452,458.753,47.199z"/>
	<path class="st2" d="M498.168,48.119c2.933,1.84,5.24,4.414,6.92,7.72c1.68,3.308,2.52,7.04,2.52,11.2s-0.84,7.88-2.52,11.16
		c-1.68,3.28-3.987,5.854-6.92,7.72c-2.934,1.868-6.16,2.8-9.68,2.8c-2.773,0-5.36-0.614-7.76-1.84c-2.4-1.226-4.348-2.72-5.84-4.48
		v17.76c0,1.066-0.36,1.972-1.08,2.72c-0.72,0.747-1.64,1.12-2.76,1.12c-1.067,0-1.96-0.36-2.68-1.08
		c-0.72-0.72-1.08-1.64-1.08-2.76v-50.32c0-1.12,0.346-2.052,1.04-2.8c0.692-0.746,1.6-1.12,2.72-1.12s2.04,0.374,2.76,1.12
		c0.72,0.748,1.08,1.68,1.08,2.8v2.32c1.28-1.866,3.146-3.466,5.6-4.8c2.453-1.333,5.066-2,7.84-2
		C491.954,45.358,495.234,46.278,498.168,48.119z M494.088,79.758c1.973-1.28,3.506-3.026,4.6-5.24
		c1.092-2.212,1.64-4.706,1.64-7.48c0-2.772-0.548-5.266-1.64-7.48c-1.094-2.212-2.627-3.96-4.6-5.24
		c-1.974-1.28-4.188-1.92-6.64-1.92c-2.507,0-4.748,0.627-6.72,1.88c-1.974,1.254-3.508,3-4.6,5.24
		c-1.094,2.24-1.64,4.748-1.64,7.52c0,2.774,0.546,5.28,1.64,7.52c1.092,2.24,2.626,3.987,4.6,5.24
		c1.972,1.254,4.212,1.88,6.72,1.88C489.9,81.679,492.114,81.039,494.088,79.758z"/>
	<path class="st2" d="M548.8,67.878c-0.747,0.667-1.627,1-2.64,1H518c0.373,3.894,1.853,7.014,4.44,9.36
		c2.586,2.347,5.746,3.52,9.48,3.52c2.56,0,4.64-0.372,6.24-1.12c1.6-0.747,3.012-1.707,4.24-2.88c0.8-0.48,1.573-0.72,2.32-0.72
		c0.906,0,1.666,0.32,2.28,0.96c0.612,0.64,0.92,1.388,0.92,2.24c0,1.12-0.534,2.133-1.6,3.04c-1.547,1.548-3.6,2.854-6.16,3.92
		c-2.56,1.066-5.174,1.6-7.84,1.6c-4.32,0-8.12-0.906-11.4-2.72c-3.28-1.812-5.813-4.346-7.6-7.6
		c-1.787-3.252-2.68-6.933-2.68-11.04c0-4.48,0.92-8.413,2.76-11.8c1.84-3.386,4.267-5.986,7.28-7.8
		c3.012-1.812,6.252-2.72,9.72-2.72c3.413,0,6.613,0.88,9.6,2.64c2.986,1.76,5.386,4.188,7.2,7.28c1.812,3.094,2.746,6.56,2.8,10.4
		C549.946,66.398,549.546,67.212,548.8,67.878z M522.64,54.679c-2.188,1.68-3.627,4.28-4.32,7.8h23.6v-0.64
		c-0.268-2.826-1.534-5.146-3.8-6.96c-2.268-1.812-4.84-2.72-7.72-2.72C527.413,52.159,524.826,52.999,522.64,54.679z"/>
</g>
</svg>
