<?xml version="1.0" encoding="utf-8"?>
<!-- Generator: Adobe Illustrator 17.0.0, SVG Export Plug-In . SVG Version: 6.00 Build 0)  -->
<!DOCTYPE svg PUBLIC "-//W3C//DTD SVG 1.1//EN" "http://www.w3.org/Graphics/SVG/1.1/DTD/svg11.dtd">
<svg version="1.1" id="Calque_1" xmlns="http://www.w3.org/2000/svg" xmlns:xlink="http://www.w3.org/1999/xlink" x="0px" y="0px"
	 width="270px" height="90px" viewBox="0 0 270 90" enable-background="new 0 0 270 90" xml:space="preserve">
<g display="none">
	<path display="inline" d="M18.908,17.069c-0.575,1.112-1.591,1.897-3.046,2.356c-1.456,0.46-3.391,0.69-5.805,0.69
		s-4.35-0.23-5.804-0.69c-1.457-0.46-2.471-1.264-3.046-2.414c-0.575-1.15-0.92-2.164-1.035-3.046C0.058,13.085,0,11.764,0,10
		c0-1.762,0.058-3.084,0.173-3.966c0.115-0.88,0.44-1.857,0.977-2.931C2.222,1.034,5.21,0,10.115,0c4.828,0,7.739,1.034,8.736,3.103
		c0.612,1.15,0.977,2.166,1.092,3.046c0.115,0.882,0.172,2.203,0.172,3.965c0,1.764-0.057,3.086-0.172,3.966
		C19.828,14.962,19.483,15.959,18.908,17.069z M0,38.39c0-1.762,0.058-3.084,0.173-3.965c0.115-0.88,0.44-1.897,0.977-3.046
		c1.072-1.992,4.061-2.989,8.965-2.989c3.678,0,6.283,0.652,7.816,1.954c1.302,1.074,1.992,2.721,2.069,4.943
		c0.075,0.767,0.115,1.878,0.115,3.333v40.23c0,1.764-0.057,3.085-0.172,3.966c-0.115,0.882-0.48,1.897-1.092,3.046
		c-0.997,1.994-3.947,2.989-8.85,2.989c-4.828,0-7.779-1.035-8.851-3.104c-0.537-1.149-0.862-2.144-0.977-2.988
		C0.058,81.916,0,80.574,0,78.735V38.39z"/>
	<path display="inline" d="M63.505,28.275c7.662,0,14.041,2.931,19.138,8.793c5.095,5.862,7.644,13.008,7.644,21.437v20.23
		c0,1.764-0.058,3.085-0.172,3.966c-0.115,0.882-0.442,1.859-0.977,2.931c-1.074,2.069-4.063,3.103-8.966,3.103
		c-5.442,0-8.583-1.417-9.425-4.253c-0.46-1.302-0.69-3.256-0.69-5.862v-20.23c0-3.142-0.901-5.593-2.701-7.356
		c-1.801-1.762-4.215-2.644-7.241-2.644c-3.028,0-5.48,0.92-7.356,2.759c-1.879,1.839-2.817,4.253-2.817,7.241v20.345
		c0,1.764-0.057,3.085-0.172,3.966c-0.115,0.882-0.48,1.859-1.092,2.931c-0.997,2.069-3.947,3.103-8.85,3.103
		c-4.828,0-7.779-1.035-8.851-3.103c-0.537-1.15-0.862-2.164-0.977-3.046c-0.115-0.88-0.173-2.202-0.173-3.966v-40.69
		c0-1.685,0.058-2.969,0.173-3.851c0.115-0.88,0.478-1.857,1.092-2.931c1.072-1.914,4.023-2.874,8.85-2.874
		c4.673,0,7.547,0.882,8.621,2.644c0.765,1.304,1.15,2.874,1.15,4.713c0.305-0.535,0.995-1.302,2.069-2.299
		c1.072-0.995,2.107-1.8,3.103-2.414C57.488,29.158,60.362,28.275,63.505,28.275z"/>
	<path display="inline" d="M99.204,77.011c-1.994-2.452-2.989-4.656-2.989-6.609c0-1.954,1.647-4.54,4.943-7.759
		c1.914-1.839,3.946-2.759,6.092-2.759c2.144,0,5.133,1.917,8.965,5.747c1.072,1.304,2.604,2.549,4.598,3.736
		c1.991,1.189,3.83,1.781,5.517,1.781c7.126,0,10.69-2.911,10.69-8.736c0-1.762-0.977-3.236-2.931-4.425
		c-1.954-1.187-4.388-2.049-7.299-2.586c-2.913-0.535-6.054-1.397-9.425-2.586c-3.373-1.187-6.514-2.586-9.425-4.195
		c-2.913-1.609-5.345-4.156-7.299-7.644c-1.954-3.486-2.931-7.682-2.931-12.586c0-6.742,2.509-12.624,7.529-17.644
		c5.018-5.018,11.857-7.529,20.517-7.529c4.598,0,8.793,0.594,12.586,1.781c3.793,1.189,6.417,2.396,7.874,3.621l2.874,2.184
		c2.374,2.223,3.563,4.1,3.563,5.632c0,1.534-0.92,3.641-2.759,6.322c-2.606,3.833-5.287,5.747-8.046,5.747
		c-1.609,0-3.603-0.765-5.977-2.299c-0.23-0.153-0.672-0.536-1.322-1.15c-0.652-0.612-1.246-1.11-1.781-1.494
		c-1.609-0.995-3.66-1.494-6.149-1.494c-2.491,0-4.56,0.594-6.207,1.782c-1.649,1.189-2.471,2.836-2.471,4.942
		c0,2.109,0.977,3.813,2.931,5.115c1.954,1.304,4.386,2.184,7.299,2.643c2.911,0.46,6.092,1.169,9.54,2.127
		c3.448,0.959,6.627,2.126,9.54,3.505c2.911,1.38,5.345,3.775,7.299,7.184c1.954,3.411,2.931,7.606,2.931,12.586
		c0,4.982-0.997,9.368-2.989,13.161c-1.993,3.793-4.598,6.724-7.816,8.793C140.469,87.97,133.84,90,126.79,90
		c-3.603,0-7.011-0.442-10.23-1.322c-3.219-0.88-5.825-1.972-7.816-3.276c-4.062-2.451-6.897-4.828-8.506-7.126L99.204,77.011z"/>
	<path display="inline" d="M183.618,17.069c-0.575,1.112-1.591,1.897-3.046,2.356c-1.456,0.46-3.391,0.69-5.805,0.69
		s-4.35-0.23-5.804-0.69c-1.457-0.46-2.471-1.264-3.046-2.414c-0.575-1.15-0.919-2.164-1.035-3.046
		c-0.115-0.88-0.173-2.201-0.173-3.965c0-1.762,0.058-3.084,0.173-3.966c0.115-0.88,0.44-1.857,0.977-2.931
		C166.931,1.034,169.92,0,174.824,0c4.828,0,7.739,1.034,8.736,3.103c0.612,1.15,0.977,2.166,1.092,3.046
		c0.115,0.882,0.172,2.203,0.172,3.965c0,1.764-0.057,3.086-0.172,3.966C184.537,14.962,184.192,15.959,183.618,17.069z
		 M164.709,38.39c0-1.762,0.058-3.084,0.173-3.965c0.115-0.88,0.44-1.897,0.977-3.046c1.072-1.992,4.061-2.989,8.965-2.989
		c3.678,0,6.283,0.652,7.816,1.954c1.302,1.074,1.992,2.721,2.069,4.943c0.075,0.767,0.115,1.878,0.115,3.333v40.23
		c0,1.764-0.057,3.085-0.172,3.966c-0.115,0.882-0.48,1.897-1.092,3.046c-0.997,1.994-3.947,2.989-8.85,2.989
		c-4.828,0-7.779-1.035-8.851-3.104c-0.537-1.149-0.862-2.144-0.977-2.988c-0.115-0.842-0.173-2.184-0.173-4.023V38.39z"/>
	<path display="inline" d="M228.007,48.62l-7.471-0.46v15.862c0,2.069,0.325,3.563,0.977,4.482c0.65,0.92,1.876,1.38,3.678,1.38
		c1.8,0,3.179,0.057,4.138,0.172c0.957,0.115,1.972,0.48,3.046,1.092c1.762,0.997,2.643,3.563,2.643,7.701
		c0,4.828-1.074,7.778-3.218,8.85c-1.15,0.537-2.166,0.862-3.046,0.977c-0.882,0.115-2.166,0.173-3.851,0.173
		c-7.97,0-14.023-1.8-18.161-5.402c-4.138-3.601-6.207-9.693-6.207-18.276V48.161c-1.456,0.23-3.028,0.345-4.713,0.345
		c-1.687,0-3.085-0.65-4.195-1.954c-1.112-1.302-1.667-3.524-1.667-6.667c0-3.141,0.19-5.42,0.575-6.839
		c0.383-1.417,0.92-2.432,1.609-3.046c1.225-0.995,2.759-1.494,4.598-1.494l3.793,0.46V17.126c0-1.762,0.058-3.064,0.173-3.908
		c0.115-0.842,0.478-1.762,1.092-2.759c0.995-1.915,3.946-2.874,8.85-2.874c5.21,0,8.314,1.419,9.311,4.253
		c0.383,1.227,0.575,3.18,0.575,5.862v11.264c3.371-0.305,5.919-0.46,7.644-0.46c1.724,0,3.026,0.058,3.908,0.173
		c0.88,0.115,1.897,0.479,3.046,1.092c1.992,0.997,2.989,3.948,2.989,8.851c0,4.828-1.035,7.778-3.104,8.85
		c-1.149,0.537-2.166,0.862-3.046,0.977C231.091,48.563,229.769,48.62,228.007,48.62z"/>
	<path display="inline" d="M263.466,17.069c-0.575,1.112-1.591,1.897-3.046,2.356c-1.456,0.46-3.391,0.69-5.805,0.69
		s-4.35-0.23-5.804-0.69c-1.457-0.46-2.471-1.264-3.046-2.414c-0.575-1.15-0.919-2.164-1.035-3.046
		c-0.115-0.88-0.173-2.201-0.173-3.965c0-1.762,0.058-3.084,0.173-3.966c0.115-0.88,0.44-1.857,0.977-2.931
		C246.779,1.034,249.768,0,254.672,0c4.828,0,7.739,1.034,8.736,3.103c0.612,1.15,0.977,2.166,1.092,3.046
		c0.115,0.882,0.172,2.203,0.172,3.965c0,1.764-0.057,3.086-0.172,3.966C264.385,14.962,264.041,15.959,263.466,17.069z
		 M244.557,38.39c0-1.762,0.058-3.084,0.173-3.965c0.115-0.88,0.44-1.897,0.977-3.046c1.072-1.992,4.061-2.989,8.965-2.989
		c3.678,0,6.283,0.652,7.816,1.954c1.302,1.074,1.992,2.721,2.069,4.943c0.075,0.767,0.115,1.878,0.115,3.333v40.23
		c0,1.764-0.057,3.085-0.172,3.966c-0.115,0.882-0.48,1.897-1.092,3.046c-0.997,1.994-3.947,2.989-8.85,2.989
		c-4.828,0-7.779-1.035-8.851-3.104c-0.537-1.149-0.862-2.144-0.977-2.988c-0.115-0.842-0.173-2.184-0.173-4.023V38.39z"/>
</g>
<g>
	<path fill="#1D3663" d="M18.908,17.069c-0.575,1.112-1.591,1.897-3.046,2.356c-1.456,0.46-3.391,0.69-5.805,0.69
		s-4.35-0.23-5.804-0.69c-1.457-0.46-2.471-1.264-3.046-2.414c-0.575-1.15-0.92-2.164-1.035-3.046C0.058,13.085,0,11.764,0,10
		c0-1.762,0.058-3.084,0.173-3.966c0.115-0.88,0.44-1.857,0.977-2.931C2.222,1.034,5.21,0,10.115,0c4.828,0,7.739,1.034,8.736,3.103
		c0.612,1.15,0.977,2.166,1.092,3.046c0.115,0.882,0.172,2.203,0.172,3.965c0,1.764-0.057,3.086-0.172,3.966
		C19.828,14.962,19.483,15.959,18.908,17.069z M0,38.39c0-1.762,0.058-3.084,0.173-3.965c0.115-0.88,0.44-1.897,0.977-3.046
		c1.072-1.992,4.061-2.989,8.965-2.989c3.678,0,6.283,0.652,7.816,1.954c1.302,1.074,1.992,2.721,2.069,4.943
		c0.075,0.767,0.115,1.878,0.115,3.333v40.23c0,1.764-0.057,3.085-0.172,3.966c-0.115,0.882-0.48,1.897-1.092,3.046
		c-0.997,1.994-3.947,2.989-8.85,2.989c-4.828,0-7.779-1.035-8.851-3.104c-0.537-1.149-0.862-2.144-0.977-2.988
		C0.058,81.916,0,80.574,0,78.735V38.39z"/>
	<path fill="#1D3663" d="M63.505,28.275c7.662,0,14.041,2.931,19.138,8.793c5.095,5.862,7.644,13.008,7.644,21.437v20.23
		c0,1.764-0.058,3.085-0.172,3.966c-0.115,0.882-0.442,1.859-0.977,2.931c-1.074,2.069-4.063,3.103-8.966,3.103
		c-5.442,0-8.583-1.417-9.425-4.253c-0.46-1.302-0.69-3.256-0.69-5.862v-20.23c0-3.142-0.901-5.593-2.701-7.356
		c-1.801-1.762-4.215-2.644-7.241-2.644c-3.028,0-5.48,0.92-7.356,2.759c-1.879,1.839-2.817,4.253-2.817,7.241v20.345
		c0,1.764-0.057,3.085-0.172,3.966c-0.115,0.882-0.48,1.859-1.092,2.931c-0.997,2.069-3.947,3.103-8.85,3.103
		c-4.828,0-7.779-1.035-8.851-3.103c-0.537-1.15-0.862-2.164-0.977-3.046c-0.115-0.88-0.173-2.202-0.173-3.966v-40.69
		c0-1.685,0.058-2.969,0.173-3.851c0.115-0.88,0.478-1.857,1.092-2.931c1.072-1.914,4.023-2.874,8.85-2.874
		c4.673,0,7.547,0.882,8.621,2.644c0.765,1.304,1.15,2.874,1.15,4.713c0.305-0.535,0.995-1.302,2.069-2.299
		c1.072-0.995,2.107-1.8,3.103-2.414C57.488,29.158,60.362,28.275,63.505,28.275z"/>
	<path fill="#1D3663" d="M100.204,77.011c-1.994-2.452-2.989-4.656-2.989-6.609c0-1.954,1.647-4.54,4.943-7.759
		c1.914-1.839,3.946-2.759,6.092-2.759c2.144,0,5.133,1.917,8.965,5.747c1.072,1.304,2.604,2.549,4.598,3.736
		c1.991,1.189,3.83,1.781,5.517,1.781c7.126,0,10.69-2.911,10.69-8.736c0-1.762-0.977-3.236-2.931-4.425
		c-1.954-1.187-4.388-2.049-7.299-2.586c-2.913-0.535-6.054-1.397-9.425-2.586c-3.373-1.187-6.514-2.586-9.425-4.195
		c-2.913-1.609-5.345-4.156-7.299-7.644c-1.954-3.486-2.931-7.682-2.931-12.586c0-6.742,2.509-12.624,7.529-17.644
		c5.018-5.018,11.857-7.529,20.517-7.529c4.598,0,8.793,0.594,12.586,1.781c3.793,1.189,6.417,2.396,7.874,3.621l2.874,2.184
		c2.374,2.223,3.563,4.1,3.563,5.632c0,1.534-0.92,3.641-2.759,6.322c-2.606,3.833-5.287,5.747-8.046,5.747
		c-1.609,0-3.603-0.765-5.977-2.299c-0.23-0.153-0.672-0.536-1.322-1.15c-0.652-0.612-1.246-1.11-1.781-1.494
		c-1.609-0.995-3.66-1.494-6.149-1.494c-2.491,0-4.56,0.594-6.207,1.782c-1.649,1.189-2.471,2.836-2.471,4.942
		c0,2.109,0.977,3.813,2.931,5.115c1.954,1.304,4.386,2.184,7.299,2.643c2.911,0.46,6.092,1.169,9.54,2.127
		c3.448,0.959,6.627,2.126,9.54,3.505c2.911,1.38,5.345,3.775,7.299,7.184c1.954,3.411,2.931,7.606,2.931,12.586
		c0,4.982-0.997,9.368-2.989,13.161c-1.993,3.793-4.598,6.724-7.816,8.793C141.469,87.97,134.84,90,127.79,90
		c-3.603,0-7.011-0.442-10.23-1.322c-3.219-0.88-5.825-1.972-7.816-3.276c-4.062-2.451-6.897-4.828-8.506-7.126L100.204,77.011z"/>
	<path fill="#1D3663" d="M185.618,17.069c-0.575,1.112-1.591,1.897-3.046,2.356c-1.456,0.46-3.391,0.69-5.805,0.69
		s-4.35-0.23-5.804-0.69c-1.457-0.46-2.471-1.264-3.046-2.414c-0.575-1.15-0.919-2.164-1.035-3.046
		c-0.115-0.88-0.173-2.201-0.173-3.965c0-1.762,0.058-3.084,0.173-3.966c0.115-0.88,0.44-1.857,0.977-2.931
		C168.931,1.034,171.92,0,176.824,0c4.828,0,7.739,1.034,8.736,3.103c0.612,1.15,0.977,2.166,1.092,3.046
		c0.115,0.882,0.172,2.203,0.172,3.965c0,1.764-0.057,3.086-0.172,3.966C186.537,14.962,186.192,15.959,185.618,17.069z
		 M166.709,38.39c0-1.762,0.058-3.084,0.173-3.965c0.115-0.88,0.44-1.897,0.977-3.046c1.072-1.992,4.061-2.989,8.965-2.989
		c3.678,0,6.283,0.652,7.816,1.954c1.302,1.074,1.992,2.721,2.069,4.943c0.075,0.767,0.115,1.878,0.115,3.333v40.23
		c0,1.764-0.057,3.085-0.172,3.966c-0.115,0.882-0.48,1.897-1.092,3.046c-0.997,1.994-3.947,2.989-8.85,2.989
		c-4.828,0-7.779-1.035-8.851-3.104c-0.537-1.149-0.862-2.144-0.977-2.988c-0.115-0.842-0.173-2.184-0.173-4.023V38.39z"/>
	<path fill="#1D3663" d="M233.335,48.62l-7.471-0.46v15.862c0,2.069,0.325,3.563,0.977,4.482c0.65,0.92,1.876,1.38,3.678,1.38
		c1.8,0,3.179,0.057,4.138,0.172c0.957,0.115,1.972,0.48,3.046,1.092c1.762,0.997,2.643,3.563,2.643,7.701
		c0,4.828-1.074,7.778-3.218,8.85c-1.15,0.537-2.166,0.862-3.046,0.977c-0.882,0.115-2.166,0.173-3.851,0.173
		c-7.97,0-14.023-1.8-18.161-5.402c-4.138-3.601-6.207-9.693-6.207-18.276V48.161c-1.456,0.23-3.028,0.345-4.713,0.345
		c-1.687,0-3.085-0.65-4.195-1.954c-1.112-1.302-1.667-3.524-1.667-6.667c0-3.141,0.19-5.42,0.575-6.839
		c0.383-1.417,0.919-2.432,1.609-3.046c1.225-0.995,2.759-1.494,4.598-1.494l3.793,0.46V17.126c0-1.762,0.058-3.064,0.173-3.908
		c0.115-0.842,0.478-1.762,1.092-2.759c0.995-1.915,3.946-2.874,8.85-2.874c5.21,0,8.314,1.419,9.311,4.253
		c0.383,1.227,0.575,3.18,0.575,5.862v11.264c3.371-0.305,5.919-0.46,7.644-0.46c1.724,0,3.026,0.058,3.908,0.173
		c0.88,0.115,1.897,0.479,3.046,1.092c1.992,0.997,2.989,3.948,2.989,8.851c0,4.828-1.035,7.778-3.104,8.85
		c-1.149,0.537-2.166,0.862-3.046,0.977C236.418,48.563,235.097,48.62,233.335,48.62z"/>
	<path fill="#1D3663" d="M268.793,17.069c-0.575,1.112-1.591,1.897-3.046,2.356c-1.456,0.46-3.391,0.69-5.805,0.69
		c-2.414,0-4.35-0.23-5.804-0.69c-1.457-0.46-2.471-1.264-3.046-2.414c-0.575-1.15-0.92-2.164-1.035-3.046
		c-0.115-0.88-0.173-2.201-0.173-3.965c0-1.762,0.058-3.084,0.173-3.966c0.115-0.88,0.44-1.857,0.977-2.931
		C252.107,1.034,255.095,0,260,0c4.828,0,7.739,1.034,8.736,3.103c0.612,1.15,0.977,2.166,1.092,3.046
		C269.943,7.031,270,8.353,270,10.115c0,1.764-0.057,3.086-0.172,3.966C269.713,14.962,269.368,15.959,268.793,17.069z
		 M249.885,38.39c0-1.762,0.058-3.084,0.173-3.965c0.115-0.88,0.44-1.897,0.977-3.046c1.072-1.992,4.061-2.989,8.965-2.989
		c3.678,0,6.283,0.652,7.816,1.954c1.302,1.074,1.992,2.721,2.069,4.943c0.075,0.767,0.115,1.878,0.115,3.333v40.23
		c0,1.764-0.057,3.085-0.172,3.966c-0.115,0.882-0.48,1.897-1.092,3.046c-0.997,1.994-3.947,2.989-8.85,2.989
		c-4.828,0-7.779-1.035-8.851-3.104c-0.537-1.149-0.862-2.144-0.977-2.988c-0.115-0.842-0.173-2.184-0.173-4.023V38.39z"/>
</g>
</svg>
