<?xml version="1.0" encoding="utf-8"?>
<!-- Generator: Adobe Illustrator 17.0.0, SVG Export Plug-In . SVG Version: 6.00 Build 0)  -->
<!DOCTYPE svg PUBLIC "-//W3C//DTD SVG 1.1//EN" "http://www.w3.org/Graphics/SVG/1.1/DTD/svg11.dtd">
<svg version="1.1" id="Calque_1" xmlns="http://www.w3.org/2000/svg" xmlns:xlink="http://www.w3.org/1999/xlink" x="0px" y="0px"
	 width="650px" height="620px" viewBox="0 0 650 620" style="enable-background:new 0 0 650 620;" xml:space="preserve">
<style type="text/css">
	.st0{fill:#377DFF;}
	.st1{fill:#FFFFFF;}
	.st2{fill:#FFFFFF;stroke:#000000;stroke-miterlimit:10;}
	.st3{clip-path:url(#SVGID_2_);}
	.st4{stroke:#FFFFFF;stroke-width:2;stroke-miterlimit:10;}
	.st5{fill:#FFFFFF;stroke:#000000;stroke-width:2;stroke-miterlimit:10;}
	.st6{fill:none;stroke:#000000;stroke-width:4;stroke-miterlimit:10;}
	.st7{fill:#85ECFD;}
	.st8{fill:#4DC4F3;}
	.st9{fill:#3D92FB;}
</style>
<g>
	<path class="st0" d="M636.354,192.753l-41.953-6.247C546.678,76.755,437.311,0,310,0C138.792,0,0,138.792,0,310
		s138.792,310,310,310c57.485,0,111.303-15.666,157.452-42.932l109.251,16.269c8.74,1.302,16.881-4.729,18.182-13.469
		l54.938-368.932C651.125,202.195,645.095,194.055,636.354,192.753z"/>
	<path class="st1" d="M618.354,167.753l-97.394-14.503l10.523,367.754c0.278,9.702-7.362,17.792-17.064,18.069l-127.693,3.654
		l171.977,25.609c8.74,1.302,16.881-4.729,18.182-13.469l54.938-368.932C633.125,177.195,627.095,169.055,618.354,167.753z"/>
	<g>
		<path class="st1" d="M336.358,116.058l-107.514,3.076c-8.833,0.253-15.789,7.618-15.536,16.451l0.224,7.819L336.358,116.058z"/>
		<path class="st1" d="M499.192,127.406c-0.253-8.833-7.618-15.789-16.451-15.536l-98.017,2.805
			c1.413,1.813,2.469,3.947,3.001,6.339l81.061,364.085c1.92,8.625-3.515,17.174-12.14,19.095l-70.034,15.593l107.712-3.082
			c8.833-0.253,15.789-7.618,15.536-16.451L499.192,127.406z"/>
	</g>
	<path class="st1" d="M439.786,466.099c1.92,8.625-3.515,17.174-12.14,19.095l-247.929,55.2c-8.625,1.92-17.174-3.515-19.095-12.14
		L79.561,164.168c-1.92-8.625,3.515-17.174,12.14-19.095l247.929-55.2c8.625-1.92,17.174,3.515,19.095,12.14L439.786,466.099z"/>
	<g>
		<path class="st0" d="M320.231,340.016c-9.214,21.693-25.707,37.664-46.923,42.404c-20.882,4.665-42.257-2.459-59.678-17.664
			c-18.087,12.034-32.203,27.136-40.916,42.932c30.284,26.226,72.167,38.266,114.267,28.861c42.1-9.405,74.878-38.124,91.122-74.744
			C362.918,350.798,342.76,342.964,320.231,340.016z"/>
		
			<ellipse transform="matrix(0.218 0.9759 -0.9759 0.218 477.3403 -21.4081)" class="st0" cx="252.029" cy="287.168" rx="74.195" ry="57.13"/>
	</g>
</g>
</svg>
