<?xml version="1.0" encoding="utf-8"?>
<!-- Generator: Adobe Illustrator 17.0.0, SVG Export Plug-In . SVG Version: 6.00 Build 0)  -->
<!DOCTYPE svg PUBLIC "-//W3C//DTD SVG 1.1//EN" "http://www.w3.org/Graphics/SVG/1.1/DTD/svg11.dtd">
<svg version="1.1" id="Calque_1" xmlns="http://www.w3.org/2000/svg" xmlns:xlink="http://www.w3.org/1999/xlink" x="0px" y="0px"
	 width="2240px" height="620px" viewBox="0 0 2240 620" style="enable-background:new 0 0 2240 620;" xml:space="preserve">
<style type="text/css">
	.st0{fill:#377DFF;}
	.st1{fill:#FFFFFF;}
	.st2{fill:#FFFFFF;stroke:#000000;stroke-miterlimit:10;}
	.st3{clip-path:url(#SVGID_2_);}
	.st4{stroke:#FFFFFF;stroke-width:2;stroke-miterlimit:10;}
	.st5{fill:#FFFFFF;stroke:#000000;stroke-width:2;stroke-miterlimit:10;}
	.st6{fill:none;stroke:#000000;stroke-width:4;stroke-miterlimit:10;}
	.st7{fill:#85ECFD;}
	.st8{fill:#4DC4F3;}
	.st9{fill:#3D92FB;}
	.st10{opacity:0.7;fill:#FFFFFF;}
	.st11{opacity:0.7;fill:#377DFF;}
	.st12{opacity:0.7;}
	.st13{fill:url(#SVGID_3_);}
	.st14{fill:url(#SVGID_4_);}
	.st15{fill:url(#SVGID_5_);}
	.st16{fill:url(#SVGID_6_);}
	.st17{fill:url(#SVGID_7_);}
</style>
<g>
	<g>
		<path class="st1" d="M795.303,375.522v49.601h-34.2v-141.4h55.4c16.8,0,29.6,4.168,38.399,12.5
			c8.801,8.334,13.2,19.568,13.2,33.699c0,8.801-1.969,16.635-5.899,23.5c-3.935,6.869-9.77,12.27-17.5,16.201
			c-7.734,3.934-17.135,5.899-28.2,5.899H795.303z M833.303,329.922c0-12.399-6.869-18.6-20.6-18.6h-17.4v36.801h17.4
			C826.434,348.123,833.303,342.057,833.303,329.922z"/>
		<path class="st1" d="M930.46,318.322c6.731-4,14.031-6,21.9-6v36.6h-9.801c-9.068,0-16.1,1.936-21.1,5.801
			c-5,3.869-7.5,10.4-7.5,19.6v50.801h-34.2V313.522h34.2v21C918.226,327.723,923.726,322.322,930.46,318.322z"/>
		<path class="st1" d="M1046.2,319.022c8.731,4.601,15.6,11.234,20.6,19.899c5,8.67,7.5,18.801,7.5,30.4s-2.5,21.734-7.5,30.4
			c-5,8.668-11.868,15.3-20.6,19.9c-8.734,4.6-18.635,6.899-29.7,6.899c-11.068,0-21-2.3-29.8-6.899
			c-8.8-4.601-15.7-11.232-20.7-19.9c-5-8.666-7.5-18.801-7.5-30.4s2.5-21.73,7.5-30.4c5-8.665,11.9-15.299,20.7-19.899
			s18.731-6.899,29.8-6.899C1027.565,312.123,1037.466,314.422,1046.2,319.022z M1000,348.822c-4.469,4.734-6.7,11.568-6.7,20.5
			c0,8.935,2.231,15.734,6.7,20.4c4.466,4.668,9.966,7,16.5,7c6.531,0,12-2.332,16.4-7c4.399-4.666,6.6-11.466,6.6-20.4
			c0-8.932-2.2-15.766-6.6-20.5c-4.4-4.73-9.869-7.1-16.4-7.1C1009.966,341.723,1004.466,344.092,1000,348.822z"/>
		<path class="st1" d="M1070.078,448.922h8.4c3.6,0,6.2-0.768,7.8-2.299c1.601-1.535,2.4-4.101,2.4-7.701V313.522h34.399v125
			c0,26.531-13.334,39.8-40,39.8h-13V448.922z M1090.879,294.822c-3.734-3.4-5.601-7.631-5.601-12.699c0-5.201,1.866-9.5,5.601-12.9
			c3.73-3.4,8.665-5.1,14.8-5.1c6.131,0,11.065,1.699,14.8,5.1c3.731,3.4,5.6,7.699,5.6,12.9c0,5.068-1.868,9.299-5.6,12.699
			c-3.734,3.4-8.669,5.1-14.8,5.1C1099.544,299.922,1094.609,298.223,1090.879,294.822z"/>
		<path class="st1" d="M1248.396,375.522h-77.399c0.399,8.399,2.531,14.435,6.399,18.101c3.866,3.668,8.8,5.5,14.8,5.5
			c5.066,0,9.266-1.266,12.601-3.801c3.331-2.531,5.531-5.8,6.6-9.8h36.2c-1.469,7.868-4.669,14.899-9.6,21.101
			c-4.935,6.199-11.2,11.068-18.801,14.6c-7.6,3.534-16.068,5.3-25.399,5.3c-10.935,0-20.635-2.3-29.101-6.899
			c-8.469-4.601-15.1-11.232-19.899-19.9c-4.8-8.666-7.2-18.801-7.2-30.4c0-11.73,2.365-21.9,7.1-30.5
			c4.731-8.6,11.366-15.199,19.9-19.8c8.531-4.601,18.266-6.899,29.2-6.899c11.065,0,20.8,2.268,29.2,6.799
			c8.399,4.535,14.899,10.9,19.5,19.101c4.6,8.2,6.899,17.634,6.899,28.3C1249.396,369.123,1249.062,372.191,1248.396,375.522z
			 M1208.896,344.623c-4.068-3.666-9.1-5.5-15.1-5.5c-6.269,0-11.469,1.868-15.601,5.6c-4.134,3.734-6.469,9.199-7,16.4h43.601
			C1214.928,353.791,1212.962,348.291,1208.896,344.623z"/>
		<path class="st1" d="M1326.734,395.723v29.4h-15.4c-13.068,0-23.234-3.232-30.5-9.701c-7.269-6.465-10.899-17.165-10.899-32.1v-41
			h-15v-28.8h15v-27.399h34.2v27.399h22.399v28.8h-22.399v41.6c0,4.4,0.899,7.469,2.699,9.201c1.801,1.734,4.832,2.6,9.101,2.6
			H1326.734z"/>
		<path class="st1" d="M1416.712,322.723c8.466,7.068,13.766,16.4,15.9,28h-32c-0.935-4.531-3.034-8.1-6.3-10.7
			c-3.27-2.601-7.369-3.899-12.301-3.899c-3.868,0-6.8,0.834-8.8,2.5c-2,1.668-3,4.033-3,7.1c0,3.469,1.831,6.068,5.5,7.8
			c3.666,1.734,9.432,3.469,17.3,5.2c8.531,2,15.531,4.034,21,6.1c5.466,2.068,10.2,5.435,14.2,10.1c4,4.67,6,10.936,6,18.801
			c0,6.4-1.734,12.068-5.2,17c-3.469,4.934-8.469,8.8-15,11.6c-6.534,2.801-14.269,4.2-23.199,4.2c-15.069,0-27.135-3.331-36.2-10
			c-9.069-6.665-14.601-16.2-16.601-28.601h33c0.531,4.801,2.566,8.469,6.101,11c3.531,2.535,8.1,3.801,13.7,3.801
			c3.865,0,6.8-0.9,8.8-2.7s3-4.165,3-7.101c0-3.865-1.835-6.631-5.5-8.299c-3.669-1.666-9.635-3.432-17.9-5.301
			c-8.269-1.73-15.068-3.6-20.399-5.6c-5.335-2-9.935-5.231-13.801-9.7c-3.868-4.466-5.8-10.565-5.8-18.3c0-10,3.8-18.1,11.4-24.301
			c7.6-6.199,18.331-9.299,32.2-9.299C1396.943,312.123,1408.243,315.656,1416.712,322.723z"/>
		<path class="st1" d="M1533.071,340.723v28.4h-88.2v-28.4H1533.071z"/>
		<path class="st1" d="M1591.971,277.123v148h-34.2v-148H1591.971z"/>
		<path class="st1" d="M1694.988,319.022c8.731,4.601,15.6,11.234,20.6,19.899c5,8.67,7.5,18.801,7.5,30.4s-2.5,21.734-7.5,30.4
			c-5,8.668-11.868,15.3-20.6,19.9c-8.734,4.6-18.635,6.899-29.7,6.899c-11.068,0-21-2.3-29.8-6.899
			c-8.8-4.601-15.7-11.232-20.7-19.9c-5-8.666-7.5-18.801-7.5-30.4s2.5-21.73,7.5-30.4c5-8.665,11.9-15.299,20.7-19.899
			s18.731-6.899,29.8-6.899C1676.354,312.123,1686.254,314.422,1694.988,319.022z M1648.788,348.822
			c-4.469,4.734-6.7,11.568-6.7,20.5c0,8.935,2.231,15.734,6.7,20.4c4.466,4.668,9.966,7,16.5,7c6.531,0,12-2.332,16.4-7
			c4.399-4.666,6.6-11.466,6.6-20.4c0-8.932-2.2-15.766-6.6-20.5c-4.4-4.73-9.869-7.1-16.4-7.1
			C1658.754,341.723,1653.254,344.092,1648.788,348.822z"/>
		<path class="st1" d="M1824.786,324.022c9.73,7.935,15.865,18.835,18.399,32.7h-36.2c-1.068-4.801-3.269-8.531-6.6-11.2
			c-3.334-2.665-7.534-4-12.6-4c-6,0-10.935,2.368-14.801,7.101c-3.868,4.734-5.8,11.634-5.8,20.699c0,9.068,1.932,15.969,5.8,20.7
			c3.866,4.734,8.801,7.101,14.801,7.101c5.065,0,9.266-1.332,12.6-4c3.331-2.666,5.531-6.4,6.6-11.201h36.2
			c-2.534,13.869-8.669,24.77-18.399,32.701c-9.734,7.934-21.801,11.899-36.2,11.899c-10.935,0-20.635-2.3-29.101-6.899
			c-8.469-4.601-15.1-11.232-19.899-19.9c-4.8-8.666-7.2-18.801-7.2-30.4c0-11.73,2.365-21.9,7.1-30.5
			c4.731-8.6,11.366-15.199,19.9-19.8c8.531-4.601,18.266-6.899,29.2-6.899C1802.985,312.123,1815.052,316.092,1824.786,324.022z"/>
		<path class="st1" d="M1922.046,317.922c6.131,3.869,10.665,9.135,13.6,15.801v-20.2h34v111.601h-34v-20.201
			c-2.935,6.67-7.469,11.936-13.6,15.801c-6.135,3.869-13.469,5.8-22,5.8c-9.2,0-17.435-2.3-24.7-6.899
			c-7.269-4.601-13-11.232-17.2-19.9c-4.2-8.666-6.3-18.801-6.3-30.4c0-11.73,2.1-21.9,6.3-30.5s9.932-15.199,17.2-19.8
			c7.266-4.601,15.5-6.899,24.7-6.899C1908.577,312.123,1915.911,314.057,1922.046,317.922z M1893.346,349.322
			c-4.469,4.801-6.7,11.469-6.7,20c0,8.535,2.231,15.2,6.7,20c4.466,4.801,10.365,7.2,17.7,7.2c7.2,0,13.1-2.466,17.7-7.399
			c4.6-4.932,6.899-11.531,6.899-19.801c0-8.4-2.3-15.031-6.899-19.9c-4.601-4.865-10.5-7.299-17.7-7.299
			C1903.711,342.123,1897.812,344.522,1893.346,349.322z"/>
		<path class="st1" d="M2101.984,313.522v111.601h-34.399v-20.201c-3.2,6.535-7.969,11.734-14.301,15.601
			c-6.334,3.868-13.699,5.8-22.1,5.8c-12.8,0-22.969-4.266-30.5-12.8c-7.534-8.531-11.3-20.266-11.3-35.2v-64.8h34v60.601
			c0,7.6,1.966,13.5,5.899,17.699c3.932,4.2,9.231,6.301,15.9,6.301c6.932,0,12.4-2.201,16.4-6.601s6-10.665,6-18.8v-59.2H2101.984z
			"/>
		<path class="st1" d="M2191.602,425.123l-22.8-31.801l-18.6,31.801h-37.601l37-58.201l-38.399-53.399h38.399l22.601,31.399
			l18.6-31.399h37.601l-37.801,56.8l39.4,54.801H2191.602z"/>
	</g>
</g>
<g>
	
		<linearGradient id="SVGID_2_" gradientUnits="userSpaceOnUse" x1="362.1342" y1="513.4189" x2="685.7791" y2="241.8487" gradientTransform="matrix(0.9962 -0.0872 0.0872 0.9962 -27.3211 32.2434)">
		<stop  offset="0" style="stop-color:#F0FAFE"/>
		<stop  offset="0.4828" style="stop-color:#FBFEFF"/>
		<stop  offset="1" style="stop-color:#FFFFFF"/>
	</linearGradient>
	<path style="fill:url(#SVGID_2_);" d="M603.301,145.465l-98.287-5.959l42.588,365.893c1.093,9.389-5.633,17.886-15.021,18.979
		L405.236,539.2l173.555,10.523c8.82,0.535,16.404-6.182,16.939-15.002l22.574-372.316C618.838,153.584,612.121,146,603.301,145.465
		z"/>
	<g>
		
			<linearGradient id="SVGID_3_" gradientUnits="userSpaceOnUse" x1="309.0863" y1="427.3945" x2="571.0069" y2="207.6169" gradientTransform="matrix(0.9962 -0.0872 0.0872 0.9962 -27.3211 32.2434)">
			<stop  offset="0" style="stop-color:#F0FAFE"/>
			<stop  offset="0.4828" style="stop-color:#FBFEFF"/>
			<stop  offset="1" style="stop-color:#FFFFFF"/>
		</linearGradient>
		<path class="st13" d="M481.075,115.657c-1.022-8.777-8.965-15.065-17.743-14.043l-97.399,11.337
			c1.565,1.683,2.804,3.717,3.543,6.053l112.485,355.635c2.665,8.425-2.005,17.415-10.43,20.08l-68.408,21.637l107.034-12.458
			c8.777-1.022,15.065-8.965,14.043-17.743L481.075,115.657z"/>
	</g>
	
		<linearGradient id="SVGID_4_" gradientUnits="userSpaceOnUse" x1="95.2244" y1="453.1225" x2="424.1228" y2="177.1439" gradientTransform="matrix(0.9962 -0.0872 0.0872 0.9962 -27.3211 32.2434)">
		<stop  offset="0" style="stop-color:#F0FAFE"/>
		<stop  offset="0.4828" style="stop-color:#FBFEFF"/>
		<stop  offset="1" style="stop-color:#FFFFFF"/>
	</linearGradient>
	<path class="st14" d="M451.415,458.239c2.665,8.425-2.005,17.415-10.43,20.08L198.81,554.917
		c-8.425,2.665-17.415-2.005-20.08-10.43L66.245,188.852c-2.665-8.425,2.005-17.415,10.43-20.08L318.85,92.174
		c8.425-2.665,17.415,2.005,20.08,10.43L451.415,458.239z"/>
	<g>
		
			<linearGradient id="SVGID_5_" gradientUnits="userSpaceOnUse" x1="311.5984" y1="322.7868" x2="238.9285" y2="448.6547" gradientTransform="matrix(0.9962 -0.0872 0.0872 0.9962 -27.3211 32.2434)">
			<stop  offset="0" style="stop-color:#3D92FB"/>
			<stop  offset="0.4673" style="stop-color:#3A86FD"/>
			<stop  offset="1" style="stop-color:#377DFF"/>
		</linearGradient>
		<path class="st15" d="M321.326,343.056c-7.288,22.413-22.327,39.761-43.049,46.332c-20.396,6.467-42.311,1.233-60.99-12.395
			c-16.969,13.565-29.715,29.84-37.018,46.335c32.454,23.487,75.228,31.83,116.348,18.792c41.12-13.038,71.27-44.505,84.261-82.402
			C364.79,350.076,344.026,344.029,321.326,343.056z"/>
		
			<linearGradient id="SVGID_6_" gradientUnits="userSpaceOnUse" x1="285.4922" y1="229.2084" x2="218.5663" y2="345.1276" gradientTransform="matrix(0.9962 -0.0872 0.0872 0.9962 -27.3211 32.2434)">
			<stop  offset="0" style="stop-color:#3D92FB"/>
			<stop  offset="0.4673" style="stop-color:#3A86FD"/>
			<stop  offset="1" style="stop-color:#377DFF"/>
		</linearGradient>
		<path class="st16" d="M303.235,279.085c12.385,39.06-1.956,78.455-32.032,87.992c-30.076,9.537-64.498-14.397-76.883-53.457
			c-12.385-39.06,1.956-78.455,32.032-87.992C256.428,216.092,290.85,240.025,303.235,279.085z"/>
	</g>
</g>
</svg>
