<?xml version="1.0" encoding="utf-8"?>
<!-- Generator: Adobe Illustrator 17.0.0, SVG Export Plug-In . SVG Version: 6.00 Build 0)  -->
<!DOCTYPE svg PUBLIC "-//W3C//DTD SVG 1.1//EN" "http://www.w3.org/Graphics/SVG/1.1/DTD/svg11.dtd">
<svg version="1.1" id="Calque_1" xmlns="http://www.w3.org/2000/svg" xmlns:xlink="http://www.w3.org/1999/xlink" x="0px" y="0px"
	 width="580px" height="200px" viewBox="0 0 580 200" style="enable-background:new 0 0 580 200;" xml:space="preserve">
<style type="text/css">
	.st0{fill:url(#SVGID_1_);}
	.st1{fill:#FFFFFF;stroke:#000000;stroke-width:10;stroke-miterlimit:10;}
	.st2{fill:#FFFFFF;}
	.st3{fill:#FFFFFF;stroke:#4DC4F3;stroke-width:12;stroke-linecap:round;stroke-miterlimit:10;}
	.st4{fill:#4DC4F3;}
	.st5{fill:#85ECFD;}
	.st6{fill:#3D92FB;}
	.st7{fill:#377DFF;}
	.st8{fill:url(#SVGID_2_);}
	.st9{fill:url(#SVGID_3_);}
	.st10{fill:url(#SVGID_4_);}
	.st11{fill:url(#SVGID_5_);}
</style>
<g>
	<g>
		<path class="st2" d="M83,181h25.4c3.314,0,6.6-3.286,6.6-6.6V28.8c0-3.314-3.286-6.8-6.6-6.8H83c-5.875,0-6,10,0,10h17.4
			c3.314,0,4.6,1.486,4.6,4.8v129.6c0,3.314-1.286,4.6-4.6,4.6H83C77,171,77,181,83,181z"/>
		<path class="st2" d="M63,188.073c0,3.351-2.91,5.804-6.603,5.481l-51.28-7.884C2.146,185.41,0,182.782,0,179.8V20.2
			c0-2.982,2.196-5.61,5.168-5.87l51.33-7.884C60.19,6.123,63,8.576,63,11.927V188.073z"/>
	</g>
	<g>
		<path class="st2" d="M230.867,127.781c-3.521,6.6-8.382,11.819-14.58,15.66c-6.201,3.84-13.182,5.76-20.94,5.76
			c-7.761,0-14.741-1.92-20.939-5.76c-6.201-3.841-11.04-9.061-14.521-15.66c-3.479-6.601-5.22-13.86-5.22-21.78
			s1.74-15.18,5.22-21.78c3.48-6.6,8.319-11.819,14.521-15.66c6.198-3.84,13.179-5.76,20.939-5.76c7.759,0,14.739,1.92,20.94,5.76
			c6.198,3.841,11.059,9.061,14.58,15.66c3.52,6.601,5.279,13.86,5.279,21.78S234.387,121.181,230.867,127.781z M217.307,91.421
			c-2.16-4.359-5.16-7.818-9-10.38c-3.84-2.56-8.16-3.84-12.96-3.84c-4.88,0-9.221,1.26-13.02,3.78
			c-3.801,2.52-6.762,5.98-8.88,10.38c-2.121,4.4-3.181,9.281-3.181,14.64c0,5.36,1.06,10.241,3.181,14.64
			c2.118,4.401,5.079,7.86,8.88,10.38c3.799,2.521,8.14,3.78,13.02,3.78c4.8,0,9.12-1.278,12.96-3.84c3.84-2.56,6.84-6.019,9-10.38
			c2.16-4.359,3.24-9.22,3.24-14.58C220.547,100.643,219.467,95.782,217.307,91.421z"/>
		<path class="st2" d="M295.653,86.861c4.479,2.84,8.02,6.779,10.62,11.819c2.599,5.04,3.9,10.761,3.9,17.16
			c0,6.401-1.281,12.141-3.84,17.22c-2.562,5.082-6.061,9.042-10.5,11.881c-4.44,2.84-9.342,4.26-14.7,4.26
			c-3.84,0-7.461-0.78-10.86-2.34c-3.401-1.561-6.221-3.46-8.46-5.7v23.52c0,2.08-0.681,3.819-2.04,5.221
			c-1.361,1.398-3.08,2.1-5.16,2.1c-2.081,0-3.801-0.681-5.16-2.04c-1.361-1.361-2.04-3.12-2.04-5.28v-73.56
			c0-2.079,0.679-3.819,2.04-5.22c1.359-1.399,3.079-2.101,5.16-2.101c2.08,0,3.799,0.701,5.16,2.101
			c1.359,1.4,2.04,3.141,2.04,5.22v0.479c1.92-2.399,4.6-4.5,8.04-6.3c3.438-1.8,7.039-2.7,10.8-2.7
			C286.174,82.601,291.172,84.022,295.653,86.861z M291.453,130.241c3.279-3.84,4.92-8.641,4.92-14.4s-1.619-10.539-4.859-14.34
			c-3.24-3.799-7.461-5.7-12.66-5.7c-5.201,0-9.44,1.901-12.72,5.7c-3.281,3.801-4.92,8.58-4.92,14.34s1.639,10.561,4.92,14.4
			c3.279,3.84,7.519,5.76,12.72,5.76C283.973,136.001,288.172,134.081,291.453,130.241z"/>
		<path class="st2" d="M368.768,86.861c4.48,2.84,8.02,6.779,10.621,11.819c2.598,5.04,3.898,10.761,3.898,17.16
			c0,6.401-1.279,12.141-3.84,17.22c-2.561,5.082-6.059,9.042-10.5,11.881c-4.439,2.84-9.34,4.26-14.699,4.26
			c-3.84,0-7.461-0.78-10.859-2.34c-3.402-1.561-6.223-3.46-8.461-5.7v23.52c0,2.08-0.68,3.819-2.039,5.221
			c-1.362,1.398-3.081,2.1-5.161,2.1c-2.081,0-3.801-0.681-5.16-2.04c-1.361-1.361-2.04-3.12-2.04-5.28v-73.56
			c0-2.079,0.679-3.819,2.04-5.22c1.359-1.399,3.079-2.101,5.16-2.101c2.08,0,3.799,0.701,5.161,2.101
			c1.359,1.4,2.039,3.141,2.039,5.22v0.479c1.92-2.399,4.6-4.5,8.041-6.3c3.438-1.8,7.037-2.7,10.799-2.7
			C359.287,82.601,364.287,84.022,368.768,86.861z M364.568,130.241c3.279-3.84,4.92-8.641,4.92-14.4s-1.621-10.539-4.859-14.34
			c-3.24-3.799-7.461-5.7-12.66-5.7c-5.201,0-9.441,1.901-12.721,5.7c-3.281,3.801-4.92,8.58-4.92,14.34s1.639,10.561,4.92,14.4
			c3.279,3.84,7.52,5.76,12.721,5.76C357.086,136.001,361.287,134.081,364.568,130.241z"/>
		<path class="st2" d="M444.882,89.861c3.12,4.841,4.68,11.54,4.68,20.1v30.72c0,2.082-0.681,3.821-2.04,5.221
			c-1.361,1.4-3.08,2.1-5.16,2.1c-2.081,0-3.8-0.699-5.159-2.1c-1.361-1.399-2.04-3.139-2.04-5.221v-30.72
			c0-4.398-0.921-7.86-2.761-10.38c-1.841-2.521-5-3.78-9.479-3.78c-4.641,0-8.28,1.341-10.92,4.021
			c-2.641,2.681-3.96,6.06-3.96,10.14v30.72c0,2.082-0.681,3.821-2.04,5.221c-1.361,1.4-3.081,2.1-5.16,2.1
			c-2.081,0-3.801-0.699-5.16-2.1c-1.361-1.399-2.04-3.139-2.04-5.221v-49.56c0-2.079,0.679-3.819,2.04-5.22
			c1.359-1.399,3.079-2.101,5.16-2.101c2.079,0,3.799,0.701,5.16,2.101c1.359,1.4,2.04,3.141,2.04,5.22v2.04
			c2.16-2.88,4.979-5.359,8.46-7.44c3.479-2.079,7.299-3.12,11.46-3.12C436.122,82.601,441.762,85.021,444.882,89.861z"/>
		<path class="st2" d="M464.334,146.021c-1.241-1.239-1.86-3.019-1.86-5.34v-2.04c0-2.319,0.619-4.099,1.86-5.34
			c1.239-1.239,3.019-1.859,5.34-1.859h1.56c2.319,0,4.099,0.62,5.34,1.859c1.24,1.241,1.86,3.021,1.86,5.34v2.04
			c0,2.321-0.62,4.101-1.86,5.34c-1.241,1.242-3.021,1.86-5.34,1.86h-1.56C467.353,147.881,465.573,147.263,464.334,146.021z"/>
		<path class="st2" d="M492.089,74.681c-1.121-0.879-1.681-2.439-1.681-4.68v-2.28c0-2.238,0.601-3.799,1.801-4.68
			c1.199-0.88,3.119-1.32,5.76-1.32c2.799,0,4.759,0.44,5.88,1.32c1.119,0.881,1.68,2.441,1.68,4.68v2.28
			c0,2.321-0.581,3.9-1.739,4.74c-1.161,0.84-3.141,1.26-5.94,1.26C495.128,76.001,493.208,75.562,492.089,74.681z M503.129,145.901
			c-1.361,1.4-3.081,2.1-5.16,2.1c-2.081,0-3.801-0.699-5.16-2.1c-1.361-1.399-2.04-3.139-2.04-5.221v-49.56
			c0-2.079,0.679-3.819,2.04-5.22c1.359-1.399,3.079-2.101,5.16-2.101c2.079,0,3.799,0.701,5.16,2.101
			c1.359,1.4,2.04,3.141,2.04,5.22v49.56C505.169,142.763,504.488,144.502,503.129,145.901z"/>
		<path class="st2" d="M575.68,133.181c-2.88,5.082-6.821,9.021-11.82,11.82c-5,2.801-10.5,4.2-16.5,4.2
			c-6.08,0-11.601-1.399-16.56-4.2c-4.962-2.8-8.88-6.738-11.761-11.82c-2.88-5.079-4.319-10.818-4.319-17.22
			c0-6.399,1.439-12.139,4.319-17.22c2.881-5.08,6.799-9.04,11.761-11.88c4.959-2.839,10.479-4.261,16.56-4.261
			c6,0,11.5,1.422,16.5,4.261c4.999,2.84,8.94,6.8,11.82,11.88c2.88,5.081,4.32,10.82,4.32,17.22
			C580,122.362,578.56,128.102,575.68,133.181z M563.14,105.461c-1.641-3.079-3.84-5.46-6.601-7.14
			c-2.76-1.681-5.819-2.521-9.18-2.521c-3.359,0-6.42,0.84-9.18,2.521c-2.76,1.68-4.961,4.061-6.601,7.14
			c-1.641,3.081-2.46,6.581-2.46,10.5c0,3.921,0.819,7.4,2.46,10.44c1.64,3.041,3.841,5.399,6.601,7.08
			c2.76,1.68,5.82,2.52,9.18,2.52c3.36,0,6.42-0.84,9.18-2.52c2.761-1.681,4.96-4.039,6.601-7.08c1.639-3.04,2.46-6.52,2.46-10.44
			C565.6,112.042,564.778,108.542,563.14,105.461z"/>
	</g>
</g>
</svg>
