<?xml version="1.0" encoding="utf-8"?>
<!-- Generator: Adobe Illustrator 17.0.0, SVG Export Plug-In . SVG Version: 6.00 Build 0)  -->
<!DOCTYPE svg PUBLIC "-//W3C//DTD SVG 1.1//EN" "http://www.w3.org/Graphics/SVG/1.1/DTD/svg11.dtd">
<svg version="1.1" id="Calque_1" xmlns="http://www.w3.org/2000/svg" xmlns:xlink="http://www.w3.org/1999/xlink" x="0px" y="0px"
	 width="800px" height="200px" viewBox="0 0 800 200" style="enable-background:new 0 0 800 200;" xml:space="preserve">
<style type="text/css">
	.st0{fill:#377DFF;}
	.st1{fill:url(#SVGID_1_);}
	.st2{fill:url(#SVGID_2_);}
	.st3{fill:url(#SVGID_3_);}
	.st4{fill:url(#SVGID_4_);}
	.st5{fill:url(#SVGID_5_);}
	.st6{fill:url(#SVGID_6_);}
	.st7{fill:#FFFFFF;}
</style>
<g>
	<g>
		<path class="st0" d="M246.415,117.549v16.747h-11.547V86.554h18.706c5.672,0,9.994,1.408,12.965,4.221
			c2.972,2.814,4.457,6.607,4.457,11.379c0,2.971-0.665,5.617-1.992,7.935c-1.328,2.319-3.299,4.142-5.909,5.47
			c-2.611,1.329-5.785,1.992-9.522,1.992H246.415z M259.245,102.153c0-4.187-2.319-6.28-6.955-6.28h-5.875v12.425h5.875
			C256.926,108.298,259.245,106.25,259.245,102.153z"/>
		<path class="st0" d="M292.05,98.236c2.273-1.351,4.738-2.026,7.395-2.026v12.358h-3.309c-3.062,0-5.436,0.653-7.124,1.958
			c-1.688,1.306-2.532,3.511-2.532,6.618v17.152h-11.547V96.615h11.547v7.091C287.919,101.41,289.776,99.587,292.05,98.236z"/>
		<path class="st0" d="M331.128,98.472c2.948,1.553,5.267,3.793,6.955,6.719c1.688,2.927,2.532,6.348,2.532,10.264
			c0,3.917-0.844,7.338-2.532,10.264c-1.688,2.927-4.007,5.166-6.955,6.719c-2.949,1.553-6.292,2.33-10.028,2.33
			c-3.737,0-7.091-0.777-10.062-2.33c-2.971-1.553-5.301-3.792-6.989-6.719c-1.688-2.926-2.532-6.348-2.532-10.264
			c0-3.917,0.844-7.338,2.532-10.264c1.688-2.926,4.018-5.166,6.989-6.719c2.971-1.553,6.325-2.33,10.062-2.33
			C324.837,96.143,328.179,96.919,331.128,98.472z M315.529,108.534c-1.509,1.599-2.262,3.906-2.262,6.922
			c0,3.016,0.753,5.313,2.262,6.888c1.508,1.576,3.365,2.364,5.571,2.364c2.205,0,4.052-0.787,5.537-2.364
			c1.485-1.575,2.228-3.871,2.228-6.888c0-3.016-0.743-5.323-2.228-6.922c-1.486-1.598-3.332-2.397-5.537-2.397
			C318.894,106.137,317.037,106.937,315.529,108.534z"/>
		<path class="st0" d="M339.191,142.332h2.836c1.215,0,2.093-0.26,2.634-0.777c0.54-0.518,0.81-1.384,0.81-2.6V96.615h11.615v42.205
			c0,8.958-4.502,13.438-13.506,13.438h-4.389V142.332z M346.214,90.302c-1.261-1.148-1.891-2.577-1.891-4.288
			c0-1.755,0.63-3.208,1.891-4.355c1.26-1.148,2.926-1.722,4.997-1.722c2.07,0,3.736,0.574,4.997,1.722
			c1.26,1.148,1.891,2.6,1.891,4.355c0,1.712-0.631,3.14-1.891,4.288c-1.261,1.148-2.927,1.722-4.997,1.722
			C349.14,92.024,347.473,91.45,346.214,90.302z"/>
		<path class="st0" d="M399.399,117.549h-26.133c0.135,2.836,0.855,4.874,2.161,6.111c1.305,1.239,2.971,1.857,4.997,1.857
			c1.711,0,3.128-0.427,4.255-1.283c1.125-0.855,1.868-1.959,2.228-3.309h12.223c-0.496,2.657-1.576,5.031-3.241,7.124
			c-1.666,2.094-3.782,3.737-6.348,4.93c-2.566,1.193-5.425,1.789-8.576,1.789c-3.692,0-6.967-0.777-9.826-2.33
			c-2.859-1.553-5.098-3.792-6.719-6.719c-1.621-2.926-2.431-6.348-2.431-10.264c0-3.961,0.799-7.395,2.397-10.298
			c1.598-2.904,3.838-5.133,6.719-6.686c2.881-1.553,6.167-2.33,9.859-2.33c3.736,0,7.023,0.766,9.859,2.296
			c2.836,1.531,5.031,3.68,6.584,6.449c1.553,2.769,2.33,5.954,2.33,9.556C399.736,115.388,399.624,116.425,399.399,117.549z
			 M386.062,107.116c-1.374-1.237-3.072-1.857-5.098-1.857c-2.117,0-3.872,0.631-5.267,1.891c-1.396,1.261-2.184,3.106-2.363,5.537
			h14.721C388.098,110.212,387.434,108.355,386.062,107.116z"/>
		<path class="st0" d="M425.849,124.37v9.927h-5.2c-4.412,0-7.845-1.091-10.298-3.275c-2.454-2.183-3.68-5.796-3.68-10.838V106.34
			h-5.065v-9.724h5.065v-9.252h11.547v9.252h7.563v9.724h-7.563v14.046c0,1.486,0.304,2.522,0.911,3.106
			c0.608,0.586,1.632,0.878,3.073,0.878H425.849z"/>
		<path class="st0" d="M456.229,99.722c2.858,2.387,4.648,5.537,5.369,9.454h-10.805c-0.316-1.53-1.024-2.735-2.127-3.613
			c-1.104-0.878-2.488-1.317-4.153-1.317c-1.306,0-2.296,0.282-2.971,0.844c-0.675,0.564-1.013,1.362-1.013,2.397
			c0,1.171,0.618,2.049,1.857,2.634c1.238,0.586,3.185,1.171,5.841,1.756c2.881,0.675,5.244,1.362,7.091,2.06
			c1.845,0.698,3.444,1.835,4.795,3.41c1.351,1.576,2.026,3.692,2.026,6.348c0,2.161-0.586,4.075-1.756,5.74
			c-1.171,1.666-2.859,2.971-5.065,3.917c-2.206,0.945-4.818,1.418-7.833,1.418c-5.088,0-9.162-1.125-12.223-3.376
			c-3.062-2.251-4.93-5.47-5.605-9.656h11.142c0.179,1.621,0.867,2.859,2.06,3.714c1.192,0.856,2.735,1.283,4.626,1.283
			c1.305,0,2.296-0.304,2.971-0.912c0.675-0.608,1.013-1.407,1.013-2.397c0-1.305-0.62-2.239-1.857-2.803
			c-1.239-0.562-3.253-1.158-6.044-1.789c-2.792-0.585-5.088-1.216-6.888-1.891c-1.801-0.675-3.354-1.766-4.66-3.275
			c-1.306-1.508-1.958-3.567-1.958-6.179c0-3.376,1.283-6.112,3.849-8.205c2.566-2.093,6.189-3.14,10.872-3.14
			C449.555,96.143,453.37,97.336,456.229,99.722z"/>
		<path class="st0" d="M495.517,105.799v9.589h-29.78v-9.589H495.517z"/>
		<path class="st0" d="M515.404,84.325v49.971h-11.547V84.325H515.404z"/>
		<path class="st0" d="M550.187,98.472c2.948,1.553,5.267,3.793,6.955,6.719c1.688,2.927,2.532,6.348,2.532,10.264
			c0,3.917-0.844,7.338-2.532,10.264c-1.688,2.927-4.007,5.166-6.955,6.719c-2.949,1.553-6.292,2.33-10.028,2.33
			c-3.737,0-7.091-0.777-10.062-2.33c-2.971-1.553-5.301-3.792-6.989-6.719c-1.688-2.926-2.532-6.348-2.532-10.264
			c0-3.917,0.844-7.338,2.532-10.264c1.688-2.926,4.018-5.166,6.989-6.719c2.971-1.553,6.325-2.33,10.062-2.33
			C543.896,96.143,547.238,96.919,550.187,98.472z M534.588,108.534c-1.509,1.599-2.262,3.906-2.262,6.922
			c0,3.016,0.753,5.313,2.262,6.888c1.508,1.576,3.365,2.364,5.571,2.364c2.205,0,4.052-0.787,5.537-2.364
			c1.485-1.575,2.228-3.871,2.228-6.888c0-3.016-0.743-5.323-2.228-6.922c-1.486-1.598-3.332-2.397-5.537-2.397
			C537.953,106.137,536.096,106.937,534.588,108.534z"/>
		<path class="st0" d="M594.013,100.161c3.285,2.679,5.357,6.359,6.212,11.041h-12.223c-0.361-1.621-1.104-2.881-2.228-3.782
			c-1.126-0.9-2.544-1.351-4.254-1.351c-2.026,0-3.692,0.8-4.997,2.397c-1.306,1.599-1.958,3.928-1.958,6.99
			c0,3.062,0.652,5.392,1.958,6.989c1.305,1.599,2.971,2.397,4.997,2.397c1.71,0,3.128-0.449,4.254-1.351
			c1.125-0.9,1.868-2.161,2.228-3.781h12.223c-0.856,4.683-2.927,8.363-6.212,11.041c-3.287,2.679-7.361,4.018-12.223,4.018
			c-3.692,0-6.967-0.777-9.826-2.33c-2.859-1.553-5.098-3.792-6.719-6.719c-1.621-2.926-2.431-6.348-2.431-10.264
			c0-3.961,0.799-7.395,2.397-10.298c1.598-2.904,3.838-5.133,6.719-6.686c2.881-1.553,6.167-2.33,9.859-2.33
			C586.652,96.143,590.726,97.483,594.013,100.161z"/>
		<path class="st0" d="M626.852,98.101c2.07,1.306,3.601,3.084,4.592,5.335v-6.82h11.48v37.681h-11.48v-6.82
			c-0.991,2.251-2.522,4.029-4.592,5.335c-2.071,1.306-4.548,1.958-7.428,1.958c-3.106,0-5.887-0.777-8.34-2.33
			c-2.454-1.553-4.389-3.792-5.808-6.719c-1.418-2.926-2.127-6.348-2.127-10.264c0-3.961,0.709-7.395,2.127-10.298
			c1.418-2.904,3.353-5.133,5.808-6.686c2.453-1.553,5.233-2.33,8.34-2.33C622.304,96.143,624.781,96.796,626.852,98.101z
			 M617.161,108.703c-1.509,1.62-2.262,3.872-2.262,6.753c0,2.881,0.753,5.132,2.262,6.753c1.508,1.62,3.5,2.431,5.976,2.431
			c2.431,0,4.423-0.832,5.976-2.499c1.553-1.665,2.33-3.893,2.33-6.685c0-2.836-0.776-5.075-2.33-6.719
			c-1.553-1.643-3.545-2.465-5.976-2.465C620.661,106.272,618.669,107.082,617.161,108.703z"/>
		<path class="st0" d="M687.607,96.615v37.681h-11.615v-6.82c-1.081,2.206-2.691,3.962-4.829,5.267
			c-2.139,1.306-4.625,1.959-7.462,1.959c-4.322,0-7.755-1.44-10.298-4.322c-2.544-2.881-3.815-6.843-3.815-11.885v-21.88h11.48
			v20.461c0,2.566,0.664,4.558,1.992,5.977c1.327,1.418,3.117,2.127,5.369,2.127c2.34,0,4.187-0.743,5.537-2.228
			c1.351-1.486,2.026-3.601,2.026-6.348V96.615H687.607z"/>
		<path class="st0" d="M717.866,134.296l-7.698-10.737l-6.28,10.737h-12.696l12.493-19.651l-12.965-18.03h12.965l7.631,10.602
			l6.28-10.602h12.696l-12.763,19.178l13.303,18.502H717.866z"/>
		<path class="st0" d="M745.809,122.749v11.547h-11.953v-11.547H745.809z"/>
		<path class="st0" d="M770.071,91.483c-1.891,0-3.264,0.405-4.119,1.215c-0.856,0.81-1.328,2.117-1.418,3.917h6.82v9.724h-6.82
			v27.956h-11.547V106.34h-4.525v-9.724h4.525V96.21c0-4.682,1.361-8.295,4.085-10.839c2.724-2.543,6.674-3.815,11.852-3.815
			c1.081,0,1.891,0.023,2.431,0.067v9.927L770.071,91.483z"/>
		<path class="st0" d="M792.605,98.236c2.273-1.351,4.738-2.026,7.395-2.026v12.358h-3.309c-3.062,0-5.436,0.653-7.124,1.958
			c-1.688,1.306-2.532,3.511-2.532,6.618v17.152h-11.547V96.615h11.547v7.091C788.475,101.41,790.332,99.587,792.605,98.236z"/>
	</g>
	<g>
		<path class="st0" d="M181.586,39.872L148.4,37.86l14.379,123.541c0.369,3.17-1.902,6.039-5.072,6.408l-42.997,5.005l58.6,3.553
			c2.978,0.181,5.539-2.087,5.719-5.065l7.622-125.71C186.832,42.614,184.564,40.053,181.586,39.872z"/>
		<g>
			<path class="st0" d="M140.318,29.808c-0.345-2.964-3.027-5.086-5.991-4.741l-32.886,3.828c0.528,0.568,0.947,1.255,1.196,2.044
				l37.98,120.078c0.9,2.845-0.677,5.88-3.522,6.78l-23.098,7.306l36.139-4.206c2.964-0.345,5.086-3.027,4.741-5.991L140.318,29.808
				z"/>
		</g>
		<path class="st0" d="M130.303,145.478c0.9,2.845-0.677,5.88-3.522,6.78l-81.769,25.863c-2.845,0.9-5.88-0.677-6.78-3.522
			L0.253,54.522c-0.9-2.845,0.677-5.88,3.522-6.78l81.769-25.863c2.845-0.9,5.88,0.677,6.78,3.522L130.303,145.478z"/>
		<g>
			<linearGradient id="SVGID_1_" gradientUnits="userSpaceOnUse" x1="43.472" y1="141.8653" x2="103.5726" y2="107.1662">
				<stop  offset="0" style="stop-color:#E6F0F4"/>
				<stop  offset="0.5" style="stop-color:#F0FAFE"/>
				<stop  offset="1" style="stop-color:#FFFFFF"/>
			</linearGradient>
			<path class="st1" d="M86.379,106.588c-2.461,7.568-7.539,13.425-14.535,15.644c-6.887,2.184-14.286,0.416-20.593-4.185
				c-5.73,4.58-10.033,10.075-12.499,15.645c10.958,7.93,25.4,10.747,39.284,6.345c13.884-4.402,24.064-15.027,28.45-27.822
				C101.055,108.958,94.044,106.916,86.379,106.588z"/>
			<linearGradient id="SVGID_2_" gradientUnits="userSpaceOnUse" x1="44.9115" y1="100.6176" x2="78.856" y2="81.0197">
				<stop  offset="0" style="stop-color:#E6F0F4"/>
				<stop  offset="0.5" style="stop-color:#F0FAFE"/>
				<stop  offset="1" style="stop-color:#FFFFFF"/>
			</linearGradient>
			<path class="st2" d="M80.271,84.988c4.182,13.188-0.66,26.49-10.815,29.71c-10.155,3.22-21.777-4.861-25.959-18.049
				s0.66-26.49,10.815-29.71C64.467,63.719,76.089,71.8,80.271,84.988z"/>
		</g>
	</g>
</g>
</svg>
